<?xml version="1.0" encoding="utf-8"?>
<!-- Generator: Adobe Illustrator 16.0.0, SVG Export Plug-In . SVG Version: 6.00 Build 0)  -->
<!DOCTYPE svg PUBLIC "-//W3C//DTD SVG 1.1//EN" "http://www.w3.org/Graphics/SVG/1.1/DTD/svg11.dtd">
<svg version="1.1" id="Layer_1" xmlns="http://www.w3.org/2000/svg" xmlns:xlink="http://www.w3.org/1999/xlink" x="0px" y="0px"
	 width="60px" height="60px" viewBox="0 0 60 60" enable-background="new 0 0 60 60" xml:space="preserve">
<g>
	
		<circle fill="none" stroke="#3A677F" stroke-width="2" stroke-linecap="round" stroke-linejoin="round" stroke-miterlimit="10" cx="40" cy="20" r="19"/>
	
		<line fill="none" stroke="#3A677F" stroke-width="2" stroke-linecap="round" stroke-linejoin="round" stroke-miterlimit="10" x1="40" y1="28" x2="40" y2="30"/>
	
		<line fill="none" stroke="#3A677F" stroke-width="2" stroke-linecap="round" stroke-linejoin="round" stroke-miterlimit="10" x1="40" y1="10" x2="40" y2="12"/>
	<path fill="none" stroke="#3A677F" stroke-width="2" stroke-linecap="round" stroke-linejoin="round" stroke-miterlimit="10" d="
		M36,24c0,2.21,1.791,4,4,4s4-1.79,4-4c0-2.209-1.791-4-4-4s-4-1.79-4-4c0-2.209,1.791-4,4-4s4,1.791,4,4"/>
	
		<line fill="none" stroke="#3A677F" stroke-width="2" stroke-linecap="round" stroke-linejoin="round" stroke-miterlimit="10" x1="20" y1="48" x2="20" y2="50"/>
	
		<line fill="none" stroke="#3A677F" stroke-width="2" stroke-linecap="round" stroke-linejoin="round" stroke-miterlimit="10" x1="20" y1="30" x2="20" y2="32"/>
	<path fill="none" stroke="#3A677F" stroke-width="2" stroke-linecap="round" stroke-linejoin="round" stroke-miterlimit="10" d="
		M16,44c0,2.21,1.791,4,4,4s4-1.79,4-4c0-2.209-1.791-4-4-4s-4-1.79-4-4c0-2.209,1.791-4,4-4s4,1.791,4,4"/>
	<path fill="none" stroke="#3A677F" stroke-width="2" stroke-linecap="round" stroke-linejoin="round" stroke-miterlimit="10" d="
		M21.053,21.053C20.702,21.034,20.355,21,20,21C9.508,21,1,29.507,1,40c0,10.494,8.508,19,19,19c10.495,0,19-8.506,19-19
		c0-0.355-0.033-0.702-0.053-1.053"/>
</g>
</svg>
