<?xml version="1.0" encoding="utf-8"?>
<!-- Generator: Adobe Illustrator 16.0.0, SVG Export Plug-In . SVG Version: 6.00 Build 0)  -->
<!DOCTYPE svg PUBLIC "-//W3C//DTD SVG 1.1//EN" "http://www.w3.org/Graphics/SVG/1.1/DTD/svg11.dtd">
<svg version="1.1" id="Layer_1" xmlns="http://www.w3.org/2000/svg" xmlns:xlink="http://www.w3.org/1999/xlink" x="0px" y="0px"
	 width="60px" height="60px" viewBox="0 0 60 60" enable-background="new 0 0 60 60" xml:space="preserve">
<g>
	<circle fill="none" stroke="#231F20" stroke-width="2" stroke-miterlimit="10" cx="895.001" cy="6454" r="5"/>
	<path fill="none" stroke="#231F20" stroke-width="2" stroke-miterlimit="10" d="M895.174,6463H904c0,6.716-0.631,12.652-6,13.787
		V6487h-2.826H892v-10.213c-5.021-1.135-5.652-7.071-5.652-13.787H895.174z"/>
	<circle fill="none" stroke="#231F20" stroke-width="2" stroke-miterlimit="10" cx="875.001" cy="6434" r="5"/>
	<path fill="none" stroke="#231F20" stroke-width="2" stroke-miterlimit="10" d="M875.174,6443H884c0,6.716-0.631,12.865-6,14v10
		h-2.826H872v-10c-5.021-1.135-5.652-7.284-5.652-14H875.174z"/>
	<circle fill="none" stroke="#231F20" stroke-width="2" stroke-miterlimit="10" cx="855.001" cy="6454" r="5"/>
	<path fill="none" stroke="#231F20" stroke-width="2" stroke-miterlimit="10" d="M854.826,6463h8.826c0,6.716-0.283,12.865-5.652,14
		v10h-3h-3v-10c-5.021-1.135-6-7.284-6-14H854.826z"/>
</g>
<g>
	<circle fill="none" stroke="#3A677F" stroke-width="2" stroke-miterlimit="10" cx="50.001" cy="26" r="5"/>
	<path fill="none" stroke="#3A677F" stroke-width="2" stroke-miterlimit="10" d="M50.174,35H59c0,6.716-0.631,12.652-6,13.787V59
		h-2.826H47V48.787c-5.021-1.135-5.652-7.071-5.652-13.787H50.174z"/>
	<circle fill="none" stroke="#3A677F" stroke-width="2" stroke-miterlimit="10" cx="30.001" cy="6" r="5"/>
	<path fill="none" stroke="#3A677F" stroke-width="2" stroke-miterlimit="10" d="M30.174,15H39c0,6.716-0.631,12.865-6,14v10h-2.826
		H27V29c-5.021-1.135-5.652-7.284-5.652-14H30.174z"/>
	<circle fill="none" stroke="#3A677F" stroke-width="2" stroke-miterlimit="10" cx="10.001" cy="26" r="5"/>
	<path fill="none" stroke="#3A677F" stroke-width="2" stroke-miterlimit="10" d="M9.826,35h8.826c0,6.716-0.283,12.865-5.652,14v10
		h-3H7V49c-5.021-1.135-6-7.284-6-14H9.826z"/>
</g>
</svg>
