<?xml version="1.0" encoding="utf-8"?>
<!-- Generator: Adobe Illustrator 16.0.0, SVG Export Plug-In . SVG Version: 6.00 Build 0)  -->
<!DOCTYPE svg PUBLIC "-//W3C//DTD SVG 1.1//EN" "http://www.w3.org/Graphics/SVG/1.1/DTD/svg11.dtd">
<svg version="1.1" id="Layer_2" xmlns="http://www.w3.org/2000/svg" xmlns:xlink="http://www.w3.org/1999/xlink" x="0px" y="0px"
	 width="100px" height="93.333px" viewBox="0 0 100 93.333" enable-background="new 0 0 100 93.333" xml:space="preserve">
<g>
	<circle fill="#3A677F" cx="47.778" cy="8.889" r="8.889"/>
</g>
<g>
	<circle fill="#2C92CC" cx="22.222" cy="51.111" r="11.111"/>
</g>
<g>
	<circle fill="#9F9F9F" cx="77.777" cy="51.111" r="11.111"/>
</g>
<g>
	<path fill="#3A677F" d="M62.551,16.541c-1.297,1.307-2.072,4.206-0.766,5.503s4.199,0.501,5.497-0.806
		c1.297-1.307,1.288-3.417-0.017-4.714C65.959,15.226,63.848,15.234,62.551,16.541z"/>
</g>
<g>
	<path fill="#3A677F" d="M60.221,23.62c-0.978-0.97-1.346-2.259-1.318-3.578C57.984,20.003,56.893,20,55.557,20H41.111
		c-7.778,0-7.778,0-7.778,7.778c0,0.835,0.002,1.564,0.011,2.23C33.391,30.007,33.438,30,33.484,30c1.387,0,2.574,0.452,3.435,1.306
		c1.136,1.128,1.452,2.687,1.274,4.222c0.829,0.024,1.782,0.027,2.918,0.027h14.444c7.778,0,7.778,0,7.778-7.778
		c0-1.119-0.003-2.061-0.026-2.881C62.074,24.826,61.006,24.4,60.221,23.62z"/>
</g>
<path fill="#2C92CC" d="M22.222,64.444c-2.982,0-5.729-0.996-7.953-2.656c-6.049,0.81-12.224,6.18-12.224,12.775L0,93.333
	l23.523-0.369l2.045-18.334c0.621-3.707-0.671-7.642-3.217-10.191C22.308,64.438,22.266,64.444,22.222,64.444z"/>
<path fill="#9F9F9F" d="M97.955,74.563c0-6.596-6.176-11.966-12.225-12.775c-2.223,1.659-4.969,2.656-7.953,2.656
	c-0.043,0-0.086-0.006-0.129-0.007c-2.547,2.55-3.838,6.483-3.217,10.192l2.045,18.332L100,93.333L97.955,74.563z"/>
<path d="M54.202,82.077c0.25,0.616,0.024,1.168-0.529,1.168h-8.024c-0.554,0-0.779-0.552-0.529-1.168l0,0
	c0.225-0.555,0.764-0.966,1.222-0.966h6.637C53.438,81.111,53.977,81.522,54.202,82.077L54.202,82.077z"/>
<path d="M55.6,86.017c0.326,0.847,0.032,1.604-0.69,1.604H44.431c-0.723,0-1.017-0.758-0.69-1.604l0,0
	c0.294-0.763,0.997-1.328,1.596-1.328h8.666C54.602,84.689,55.305,85.254,55.6,86.017L55.6,86.017z"/>
<path d="M57.807,90.372c0.424,0.848,0.043,1.605-0.897,1.605H43.292c-0.94,0-1.322-0.758-0.897-1.605l0,0
	c0.383-0.763,1.296-1.328,2.074-1.328h11.263C56.509,89.045,57.423,89.609,57.807,90.372L57.807,90.372z"/>
<path d="M66.223,82.322c0.25,0.616,0.025,1.167-0.529,1.167H57.67c-0.554,0-0.779-0.551-0.529-1.167l0,0
	c0.227-0.555,0.764-0.966,1.223-0.966H65C65.459,81.356,65.998,81.767,66.223,82.322L66.223,82.322z"/>
<path d="M69.975,86.262c0.336,0.847,0.033,1.605-0.709,1.605H58.502c-0.743,0-1.045-0.759-0.709-1.605l0,0
	c0.303-0.764,1.025-1.328,1.639-1.328h8.902C68.949,84.934,69.672,85.499,69.975,86.262L69.975,86.262z"/>
<path d="M73.355,90.618c0.369,0.846,0.037,1.604-0.777,1.604H60.766c-0.816,0-1.147-0.759-0.779-1.604l0,0
	c0.332-0.764,1.125-1.328,1.8-1.328h9.771C72.232,89.29,73.023,89.854,73.355,90.618L73.355,90.618z"/>
<path d="M41.98,82.322c0.25,0.616,0.025,1.167-0.529,1.167h-8.024c-0.554,0-0.779-0.551-0.529-1.167l0,0
	c0.225-0.555,0.764-0.966,1.222-0.966h6.637C41.216,81.356,41.754,81.767,41.98,82.322L41.98,82.322z"/>
<path d="M41.119,86.262c0.306,0.847,0.031,1.605-0.647,1.605h-9.818c-0.678,0-0.953-0.759-0.647-1.605l0,0
	c0.276-0.764,0.935-1.328,1.495-1.328h8.12C40.185,84.934,40.843,85.499,41.119,86.262L41.119,86.262z"/>
<path d="M40.012,90.618c0.367,0.846,0.037,1.604-0.775,1.604h-11.77c-0.813,0-1.142-0.759-0.775-1.604l0,0
	c0.331-0.764,1.121-1.328,1.793-1.328h9.735C38.892,89.29,39.682,89.854,40.012,90.618L40.012,90.618z"/>
<g>
	<path fill="#3A677F" d="M34.588,38.386c1.297-1.307,2.072-4.206,0.766-5.503c-1.306-1.297-4.2-0.501-5.497,0.806
		s-1.289,3.417,0.017,4.714C31.18,39.7,33.291,39.692,34.588,38.386z"/>
</g>
<rect x="37.778" y="37.778" fill="#3A677F" width="22.222" height="10"/>
</svg>
