<?xml version="1.0" encoding="utf-8"?>
<!-- Generator: Adobe Illustrator 16.0.0, SVG Export Plug-In . SVG Version: 6.00 Build 0)  -->
<!DOCTYPE svg PUBLIC "-//W3C//DTD SVG 1.1//EN" "http://www.w3.org/Graphics/SVG/1.1/DTD/svg11.dtd">
<svg version="1.1" id="Layer_1" xmlns="http://www.w3.org/2000/svg" xmlns:xlink="http://www.w3.org/1999/xlink" x="0px" y="0px"
	 width="512px" height="512px" viewBox="0 0 512 512" enable-background="new 0 0 512 512" xml:space="preserve">
<path id="facebook-circle-outline-icon" fill="#3A677F" d="M256.417,90c44.34,0,86.026,17.267,117.38,48.62
	c31.354,31.354,48.62,73.04,48.62,117.38s-17.267,86.025-48.62,117.38c-31.354,31.354-73.04,48.62-117.38,48.62
	s-86.026-17.268-117.38-48.62c-31.354-31.354-48.62-73.04-48.62-117.38s17.267-86.026,48.62-117.38
	C170.391,107.267,212.077,90,256.417,90 M256.417,50c-113.771,0-206,92.229-206,206c0,113.771,92.229,206,206,206
	c113.771,0,206-92.229,206-206C462.417,142.229,370.188,50,256.417,50L256.417,50z M228.111,218.133h-23.517v38.387h23.517v112.764
	h45.22V256.04h31.551l3.358-37.907h-34.909c0,0,0-14.155,0-21.593c0-8.938,1.801-12.477,10.438-12.477c6.957,0,24.471,0,24.471,0
	v-39.347c0,0-25.797,0-31.309,0c-33.649,0-48.821,14.814-48.821,43.186C228.111,212.614,228.111,218.133,228.111,218.133z"/>
</svg>
