<?xml version="1.0" encoding="utf-8"?>
<!-- Generator: Adobe Illustrator 16.0.0, SVG Export Plug-In . SVG Version: 6.00 Build 0)  -->
<!DOCTYPE svg PUBLIC "-//W3C//DTD SVG 1.1//EN" "http://www.w3.org/Graphics/SVG/1.1/DTD/svg11.dtd">
<svg version="1.1" id="Layer_1" xmlns="http://www.w3.org/2000/svg" xmlns:xlink="http://www.w3.org/1999/xlink" x="0px" y="0px"
	 width="60px" height="60px" viewBox="0 0 60 60" enable-background="new 0 0 60 60" xml:space="preserve">
<g>
	<path fill="none" stroke="#3A677F" stroke-width="2" stroke-linecap="round" stroke-linejoin="round" stroke-miterlimit="10" d="
		M50.814,33H59v-8h-8.188c-0.515-2.109-1.389-4.281-2.529-6.15l5.79-5.79l-7.134-7.132l-5.791,5.789
		c-1.869-1.14-5.022-2.311-6.147-2.529V1H25v8.188c-1.297,0.281-4.282,1.39-6.148,2.529L13.06,5.928L5.926,13.06l5.791,5.792
		C10.576,20.719,9.484,23.766,9.185,25H1v8h8.185c0.409,3.047,1.392,6.281,2.532,8.148L5.925,46.94l7.135,7.132l5.79-5.792
		c1.869,1.143,5.181,2.005,6.151,2.534V59h10v-8.186c0.969-0.529,4.281-1.392,6.147-2.531l5.793,5.789l7.132-7.132l-5.79-5.792
		C49.423,39.281,50.285,37.97,50.814,33z"/>
	
		<circle fill="none" stroke="#3A677F" stroke-width="2" stroke-linecap="round" stroke-linejoin="round" stroke-miterlimit="10" cx="30" cy="30" r="11"/>
</g>
</svg>
