<?xml version="1.0" encoding="utf-8"?>
<!-- Generator: Adobe Illustrator 16.0.0, SVG Export Plug-In . SVG Version: 6.00 Build 0)  -->
<!DOCTYPE svg PUBLIC "-//W3C//DTD SVG 1.1//EN" "http://www.w3.org/Graphics/SVG/1.1/DTD/svg11.dtd">
<svg version="1.1" id="Layer_1" xmlns="http://www.w3.org/2000/svg" xmlns:xlink="http://www.w3.org/1999/xlink" x="0px" y="0px"
	 width="60px" height="59.966px" viewBox="0 0 60 59.966" enable-background="new 0 0 60 59.966" xml:space="preserve">
<g>
	<path fill="none" stroke="#3A677F" stroke-width="2" stroke-linecap="round" stroke-linejoin="round" stroke-miterlimit="10" d="
		M49.911,7.589c0,0-0.877,4.818-4.387,6.57c-3.507-0.877-7.016,1.754-6.139,1.754c0.876,0,1.753,3.51,1.753,3.51
		c0.879,0.877,2.633,0,2.633,0c2.191,2.191-3.51,6.139-3.51,7.016c0,0.879,2.194,1.318,0.877,2.633
		c-1.314,1.314-2.63,1.754-2.63,1.754c0,4.385-4.386,4.385-5.263,4.385s-2.633-3.508-2.633-4.385s0.88-1.754,0.88-2.631
		s-1.756-2.633-1.756-2.633c0-3.506-2.631-2.629-5.263-2.629c-2.631,0-2.631-3.51-2.631-3.51s0-6.141,4.387-7.016
		c4.383-0.881,4.383,0.875,4.383,0.875c1.756,1.754,5.263,0,7.019,0c0,0,0.877-6.139-0.879-5.262
		C35,8.898,33.429,8.218,33.246,6.265C32.99,3.525,40.9,1.882,40.9,1.882"/>
	
		<rect x="1" y="37.003" fill="none" stroke="#3A677F" stroke-width="2" stroke-linejoin="round" stroke-miterlimit="10" width="10" height="18"/>
	<path fill="none" stroke="#3A677F" stroke-width="2" stroke-linecap="round" stroke-linejoin="round" stroke-miterlimit="10" d="
		M11,52.847c26.302,8.768,17.942,9.186,48-5.844c-2.662-2.662-4.765-3.709-7.514-2.922l-10.823,3.59"/>
	<path fill="none" stroke="#3A677F" stroke-width="2" stroke-linecap="round" stroke-linejoin="round" stroke-miterlimit="10" d="
		M11,39.003h8c5.895,0,9.748,2.992,11,3.986c3.336,0.029,3.597,0,8,0c3.974,0,3.974,6.014,0,6.014H24"/>
	<path fill="none" stroke="#3A677F" stroke-width="2" stroke-linecap="round" stroke-linejoin="round" stroke-miterlimit="10" d="
		M17.751,31.126c-5.591-9.527-2.399-21.783,7.128-27.371C34.405-1.836,46.66,1.353,52.25,10.88c5.591,9.527,2.4,21.783-7.127,27.373
		"/>
</g>
</svg>
