<?xml version="1.0" encoding="utf-8"?>
<!-- Generator: Adobe Illustrator 16.0.0, SVG Export Plug-In . SVG Version: 6.00 Build 0)  -->
<!DOCTYPE svg PUBLIC "-//W3C//DTD SVG 1.1//EN" "http://www.w3.org/Graphics/SVG/1.1/DTD/svg11.dtd">
<svg version="1.1" id="Layer_1" xmlns="http://www.w3.org/2000/svg" xmlns:xlink="http://www.w3.org/1999/xlink" x="0px" y="0px"
	 width="42px" height="60.087px" viewBox="0 0 42 60.087" enable-background="new 0 0 42 60.087" xml:space="preserve">
<g>
	
		<polygon fill="none" stroke="#3A677F" stroke-width="2" stroke-linecap="round" stroke-linejoin="round" stroke-miterlimit="10" points="
		1,59.087 6.043,54.044 11,59 16.13,54.044 21,59 26,54 31,59 36,54 41,59.087 41,1.087 36,6 31,1 26,6 21,1 16,6 11,1 6,6 1,1.087 
			"/>
	
		<line fill="none" stroke="#3A677F" stroke-width="2" stroke-linecap="round" stroke-linejoin="round" stroke-miterlimit="10" x1="8.565" y1="17" x2="23.695" y2="17"/>
	
		<line fill="none" stroke="#3A677F" stroke-width="2" stroke-linecap="round" stroke-linejoin="round" stroke-miterlimit="10" x1="8.565" y1="25" x2="18.652" y2="25"/>
	
		<line fill="none" stroke="#3A677F" stroke-width="2" stroke-linecap="round" stroke-linejoin="round" stroke-miterlimit="10" x1="8.565" y1="33" x2="21.174" y2="33"/>
	
		<line fill="none" stroke="#3A677F" stroke-width="2" stroke-linecap="round" stroke-linejoin="round" stroke-miterlimit="10" x1="8.565" y1="41" x2="16.13" y2="41"/>
	
		<line fill="none" stroke="#3A677F" stroke-width="2" stroke-linecap="round" stroke-linejoin="round" stroke-miterlimit="10" x1="31.261" y1="17" x2="33.782" y2="17"/>
	
		<line fill="none" stroke="#3A677F" stroke-width="2" stroke-linecap="round" stroke-linejoin="round" stroke-miterlimit="10" x1="31.261" y1="25" x2="33.782" y2="25"/>
	
		<line fill="none" stroke="#3A677F" stroke-width="2" stroke-linecap="round" stroke-linejoin="round" stroke-miterlimit="10" x1="31.261" y1="33" x2="33.782" y2="33"/>
	
		<line fill="none" stroke="#3A677F" stroke-width="2" stroke-linecap="round" stroke-linejoin="round" stroke-miterlimit="10" x1="31.261" y1="41" x2="33.782" y2="41"/>
</g>
</svg>
