<?xml version="1.0" encoding="utf-8"?>
<!-- Generator: Adobe Illustrator 16.0.0, SVG Export Plug-In . SVG Version: 6.00 Build 0)  -->
<!DOCTYPE svg PUBLIC "-//W3C//DTD SVG 1.1//EN" "http://www.w3.org/Graphics/SVG/1.1/DTD/svg11.dtd">
<svg version="1.1" id="Layer_1" xmlns="http://www.w3.org/2000/svg" xmlns:xlink="http://www.w3.org/1999/xlink" x="0px" y="0px"
	 width="42px" height="60.087px" viewBox="0 0 42 60.087" enable-background="new 0 0 42 60.087" xml:space="preserve">
<g>
	
		<polygon fill="none" stroke="#3A677F" stroke-width="2" stroke-linecap="round" stroke-linejoin="round" stroke-miterlimit="10" points="
		1,59.087 6,54 11.087,59.087 16,54 21,59 26,54 31,59 36,54 41,59.087 41,1.087 36,6 31,1 26,6 21,1 16,6 11,1 6,6 1,1.087 	"/>
	
		<line fill="none" stroke="#3A677F" stroke-width="2" stroke-linecap="round" stroke-linejoin="round" stroke-miterlimit="10" x1="8.565" y1="15" x2="28.739" y2="15"/>
	
		<line fill="none" stroke="#3A677F" stroke-width="2" stroke-linecap="round" stroke-linejoin="round" stroke-miterlimit="10" x1="8.565" y1="23" x2="18.652" y2="23"/>
	
		<line fill="none" stroke="#3A677F" stroke-width="2" stroke-linecap="round" stroke-linejoin="round" stroke-miterlimit="10" x1="8.565" y1="31" x2="18.652" y2="31"/>
	
		<line fill="none" stroke="#3A677F" stroke-width="2" stroke-linecap="round" stroke-linejoin="round" stroke-miterlimit="10" x1="8.565" y1="39" x2="16.13" y2="39"/>
	
		<line fill="none" stroke="#3A677F" stroke-width="2" stroke-linecap="round" stroke-linejoin="round" stroke-miterlimit="10" x1="30" y1="43.956" x2="30" y2="47"/>
	
		<line fill="none" stroke="#3A677F" stroke-width="2" stroke-linecap="round" stroke-linejoin="round" stroke-miterlimit="10" x1="30" y1="26" x2="30" y2="28.826"/>
	<path fill="none" stroke="#3A677F" stroke-width="2" stroke-linecap="round" stroke-linejoin="round" stroke-miterlimit="10" d="
		M26.217,40.174c0,2.089,1.695,3.782,3.783,3.782s3.782-1.693,3.782-3.782c0-2.09-1.694-3.782-3.782-3.782s-3.783-1.694-3.783-3.783
		s1.695-3.782,3.783-3.782s3.782,1.693,3.782,3.782"/>
</g>
</svg>
