<?xml version="1.0" encoding="utf-8"?>
<!-- Generator: Adobe Illustrator 16.0.0, SVG Export Plug-In . SVG Version: 6.00 Build 0)  -->
<!DOCTYPE svg PUBLIC "-//W3C//DTD SVG 1.1//EN" "http://www.w3.org/Graphics/SVG/1.1/DTD/svg11.dtd">
<svg version="1.1" id="Layer_1" xmlns="http://www.w3.org/2000/svg" xmlns:xlink="http://www.w3.org/1999/xlink" x="0px" y="0px"
	 width="58px" height="65px" viewBox="0 0 58 65" enable-background="new 0 0 58 65" xml:space="preserve">
<g>
	<path fill="#FFFFFF" stroke="#FFFFFF" stroke-width="2" stroke-miterlimit="10" d="M52.508,31.667L29,57.997L5.493,31.667
		c-0.735-0.823-1.999-0.895-2.824-0.16c-0.824,0.736-0.896,2-0.16,2.824l25,28C27.888,62.756,28.431,63,29,63
		s1.112-0.243,1.492-0.668l25-28c0.735-0.824,0.664-2.088-0.16-2.824C54.507,30.773,53.244,30.844,52.508,31.667z"/>
	<path fill="#FFFFFF" stroke="#FFFFFF" stroke-width="2" stroke-miterlimit="10" d="M27.508,33.332C27.888,33.756,28.431,34,29,34
		s1.112-0.243,1.492-0.668l25-28c0.735-0.824,0.664-2.088-0.16-2.824c-0.825-0.734-2.089-0.663-2.824,0.16L29,28.997L5.493,2.667
		c-0.735-0.823-1.999-0.895-2.824-0.16c-0.824,0.736-0.896,2-0.16,2.824L27.508,33.332z"/>
</g>
</svg>
