<?xml version="1.0" encoding="utf-8"?>
<!-- Generator: Adobe Illustrator 16.0.0, SVG Export Plug-In . SVG Version: 6.00 Build 0)  -->
<!DOCTYPE svg PUBLIC "-//W3C//DTD SVG 1.1//EN" "http://www.w3.org/Graphics/SVG/1.1/DTD/svg11.dtd">
<svg version="1.1" id="Layer_1" xmlns="http://www.w3.org/2000/svg" xmlns:xlink="http://www.w3.org/1999/xlink" x="0px" y="0px"
	 width="100px" height="100px" viewBox="0 0 100 100" enable-background="new 0 0 100 100" xml:space="preserve">
<path fill="#3A677F" d="M94.708,30.456c-0.367-0.978-2.118-4.848-2.606-5.745c-0.488-0.895-3.748-5.133-4.195-5.866
	c-0.449-0.733-2.363-3.056-2.813-3.667c-0.448-0.612-1.991-2.159-2.112-2.852c-0.123-0.692-0.442-1.1-0.442-1.1
	s0.53-0.838,0.192-0.855c-0.35-0.017-0.352-0.6-0.679-0.6c-0.325,0-0.542,0.152-0.747-0.175c-0.203-0.325-0.979-1.182-0.854-1.507
	c0.122-0.325,0.358-1.485,0.235-1.935c-0.121-0.447-0.412-0.551-0.697-0.306c-0.284,0.245-0.772,0.744-0.977,1.232
	c-0.203,0.49-0.309,1.807-0.309,1.807s-0.697,0.016-0.82,0.342c-0.121,0.326-0.326,1.751-0.611,2.119
	c-0.285,0.366-0.65,0.611-1.182,1.018c-0.529,0.407-1.061,0.774-1.753,1.141c-0.69,0.368-1.466,0.734-1.466,0.734l-1.305,0.57
	c0,0-2.116,0.733-3.422,0.978c-1.305,0.245-2.729,0.652-3.383,1.142c-0.65,0.488-1.507,0.978-2.484,1.384
	c-0.978,0.408-3.502,1.548-4.887,1.792c-1.388,0.245-3.057,0.367-4.236,0.653c-1.209,0.29-2.69,1.182-2.69,1.182
	s-2.167,2.076-2.754,2.51c-0.556,0.411-1.593,0.985-2.136,0.953c-0.335-0.019-1.642-0.329-1.743-0.511
	c-0.221-0.396,0.271-1.537,0.396-2.293c0.125-0.754,0.233-1.387-0.396-2.866c-0.121-0.281-0.283-0.543-0.473-0.786
	c0.834-0.375,1.824-0.957,1.675-1.518c-0.233-0.891-1.079-0.984-1.218-1.078c-0.141-0.093-0.47-0.798-1.455-1.078
	c-0.594-0.171-0.863,1.126-0.983,2.181c-0.308-0.131-0.614-0.225-0.898-0.278c-0.979-0.183-2.335,0-3.217,0.365
	c-0.731,0.303-1.562,0.708-2.117,1.222c-1.279,1.181-1.395,2.488-1.408,3.418c-0.014,0.899,0.185,1.704,0.349,2.194
	c0.162,0.489,0.371,0.448,0.452,0.937c0.082,0.49-0.953,2.135-0.665,2.511c0.393,0.514,1.19,0.107,1.19,0.434
	c0,0.326,0.488,0.814,0.488,0.814l0.488,0.57c0,0,0.896,0.408,0.571,0.653c0,0,0.08,0.08-1.304-0.245
	c-1.385-0.326-2.282-0.896-3.586-0.896c-1.305,0-2.378-0.13-3.503-0.571c-1.094-0.429-2.119-1.12-3.586-1.365
	c-1.467-0.246-3.388-0.516-4.854-0.84c-1.467-0.327-4.027-1.136-4.517-1.299c-0.49-0.163-0.896-0.407-1.546-1.058
	c-0.653-0.655-1.712-1.062-2.364-1.468c-0.653-0.408-1.537-0.836-1.894-0.976c-0.249-0.098-0.272,0.651,0.08,0.93
	c0.594,0.469,1.488,0.859,1.081,1.023c-0.409,0.163-0.331,0.214-0.895,0.3c-0.53,0.082-1.045,0.173-1.533,0.216
	c-0.615,0.058-0.867,0.119-1.356,0.2c-0.487,0.082-0.811,0.182-1.091,0.346c-0.259,0.151,0.025,0.409-0.334,0.557
	C5.336,25.181,5.006,25.238,5,25.551c-0.009,0.412,0.318,0.287,0.318,0.515c0,0.22,0.005,0.42,0.216,0.585
	c0.121,0.096,0.115,0.2,0.19,0.369c0.102,0.226,0.561,0.222,1.203,0.405c0.546,0.157,1.483,0.108,1.931,0.108
	c0.777,0,1.468,0.176,1.918,0.199c0.774,0.04,1.634-0.044,2.042-0.083c0.408-0.042,1.182-0.123,1.711,0
	c0.53,0.122,1.471,0.882,2.53,1.372c1.031,0.476,2.867,1.153,3.886,1.479c0.869,0.277,2.312,0.855,3.29,0.976
	c0.978,0.123,2.816,0.757,3.712,1.124c0.896,0.367,3.652,1.607,4.712,1.973c1.06,0.368,2.934,1.06,3.708,1.142
	c0.774,0.082,3.259,0.447,4.074,0.651c0.814,0.204,2.118,0.856,2.364,1.344c0.244,0.49,1.018,2.729,1.465,3.545
	c0.447,0.814,0.693,1.669,1.712,2.199c1.018,0.532,2.728,1.062,3.624,1.305c0.896,0.244,3.179,1.14,4.156,1.751
	c0.979,0.611,2.16,1.345,3.178,2.119c1.021,0.775,2.201,2.282,2.404,1.916c0.203-0.367,1.02-1.631,1.428-1.427
	c0.406,0.205,1.914,1.957,2.32,2.282c0.408,0.324,0.611,0.57,0.611,1.222s0.406,1.996,0.611,2.771
	c0.203,0.775,0.367,1.346,0.488,2.607c0.122,1.264,0.611,3.057,0.854,4.034c0.243,0.977,1.549,6.151,1.549,6.845
	c0,0.691,0.163,1.752,0.041,2.321c-0.123,0.571-0.489,1.956-0.53,2.894c-0.041,0.938-0.041,3.708-0.041,4.643
	c0,0.938-0.121,3.058-0.121,4.158c0,1.1-0.123,1.955-0.162,3.179c-0.043,1.222,0.244,2.118,0,2.565
	c-0.246,0.447-1.834,1.752-2.486,2.118s-2.2,1.101-2.852,1.263c-0.652,0.164-0.734,0.244-1.345,0.369
	c-0.61,0.12-0.978,0.405-1.183,0.609c-0.203,0.203-0.445,0.163-0.774,0.326c-0.325,0.162-0.325,0.691,0.124,0.773
	c0.446,0.082,1.465,0.284,1.955,0.123c0.488-0.164,0.938-0.164,1.792-0.164c0.856,0,2.731-0.406,3.181-0.406
	c0.445,0,1.385,0,2.483,0c1.101,0,3.259,0,3.749-0.205c0.488-0.203,0.65-0.528,0.445-1.303c-0.201-0.774-0.568-2.16-0.528-2.526
	c0.041-0.365-0.04-0.651,0.205-0.651c0.243,0,1.669-0.081,2.28-0.081c0.609,0,1.181,0.244,1.223-0.286
	c0.04-0.529-0.205-3.543-0.205-4.766s0.082-7.293,0.042-9.29c-0.042-1.996-0.081-5.377-0.081-6.069c0-0.693,0.285-6.396,0.285-7.578
	c0-1.183,0.406-6.152,0.447-7.334s0-5.5,0-5.5s-0.041-0.977,0.244-1.18s1.832-1.629,2.974-2.282c1.142-0.652,4.97-2.974,6.315-3.585
	c1.344-0.611,3.137-1.833,4.235-2.648c1.101-0.815,3.179-2.363,3.871-3.055c0.69-0.693,2.198-2.038,2.198-2.607
	C94.992,32.127,95.075,31.434,94.708,30.456z M84.727,31.598c-0.855,0.326-1.914,0.653-3.259,1.019
	c-1.345,0.368-2.403,0.653-4.237,1.06c-1.834,0.406-2.851,0.49-4.154,0.652c-1.305,0.163-2.159-0.285-3.545-0.571
	c-1.385-0.286-2.852-0.081-3.422,0c-0.566,0.081-1.67,0.325-2.2,0.448c-0.529,0.123-0.732-0.529-1.019-0.734
	c-0.285-0.202-0.693-0.121-1.021-0.08c-0.324,0.041-1.181-1.548-1.751-1.874c-0.571-0.326-2.567-1.752-3.098-2.2
	c-0.529-0.449-0.367-1.669-0.651-2.119c-0.285-0.448,0.774-0.693,1.466-0.815c0.693-0.122,2.119-1.18,2.812-1.547
	c0.692-0.368,2.324-1.793,2.974-2.322c0.651-0.53,1.549-1.344,2.119-1.548c0.569-0.203,1.752-0.61,2.771-0.937
	c1.018-0.326,1.915-1.059,2.812-1.589c0.896-0.528,2.812-1.547,2.812-1.547s1.14-0.611,1.71-1.019
	c0.57-0.407,1.223-0.61,1.508-0.692c0.287-0.082,0.326,0.286,0.732,0.775c0.408,0.488,1.916-0.123,2.078,0.08
	c0.164,0.204-0.421,0.82-0.732,1.793c-0.285,0.894-0.447,3.015-0.285,3.667c0.164,0.651,1.875,1.304,2.852,1.466
	c0.979,0.163,1.509,0.572,1.753,0.978c0.244,0.408,0.651,2.281,1.14,3.667c0.489,1.387,1.428,2.69,1.428,3.097
	C86.314,31.111,85.582,31.272,84.727,31.598z"/>
</svg>
