<?xml version="1.0" encoding="utf-8"?>
<!-- Generator: Adobe Illustrator 16.0.0, SVG Export Plug-In . SVG Version: 6.00 Build 0)  -->
<!DOCTYPE svg PUBLIC "-//W3C//DTD SVG 1.1//EN" "http://www.w3.org/Graphics/SVG/1.1/DTD/svg11.dtd">
<svg version="1.1" id="Layer_1" xmlns="http://www.w3.org/2000/svg" xmlns:xlink="http://www.w3.org/1999/xlink" x="0px" y="0px"
	 width="100px" height="100px" viewBox="0 0 100 100" enable-background="new 0 0 100 100" xml:space="preserve">
<path fill="#3A677F" d="M13.162,53.021c0.324,0.572-0.23,1.468,0.318,2.129c0.577,0.701-0.256,1.01,0.632,1.582
	c0.542,0.352,1.041,0.471,1.411,0.506c0.407,0.037,1.244,0.143,1.793,0.123c1.13-0.036,2.14-0.229,2.835-0.543
	c1.083-0.487,1.954-0.899,2.86-0.899c0.472,0,1.259,0.103,1.516,0.065c0.389-0.058,0.831-0.194,1.451-0.194
	c1.033,0,5.422,0.646,7.357,1.032c1.938,0.387,5.293,0.387,6.454,0.387c0.29,0,0.537-0.061,0.71,0.227
	c0.519,0.86,0.613,3.002,1.098,4.551c0.643,2.064,1.161,4.39,1.935,6.584c0.775,2.193,3.485,6.582,4.259,8.391
	c0.775,1.807,0.517,4.13,1.678,7.23c1.163,3.098,2.712,6.063,5.292,8.904c1.69,1.86,4.146,2.314,6.842,2.194
	c1.424-0.063,3.356,0.129,4.646-0.258c3.463-1.038,6.454-4.39,7.876-6.067c1.419-1.677,4.903-7.1,5.808-8.777
	c0.903-1.679,4.131-10.457,4.646-13.295c0.516-2.84,0.902-8.392,0.902-10.199c0-1.807-0.387-6.583-0.517-8.904
	c-0.128-2.324-1.42-5.809-2.065-7.357c-0.645-1.549,0-3.228,0-5.035s2.324-4.001,3.357-5.679c1.032-1.677,1.161-3.872,1.161-5.809
	c0-1.935-1.47-3.831-2.376-4.875c-0.605-0.699-1.669-1.512-3.303-1.965c-0.791-0.22-1.482-0.313-2.583-0.259
	c-0.962,0.047-1.894,0.043-2.709,0.259c-2.454,0.645-3.679,1.483-5.166,2.968c-1.289,1.29-1.031,3.097-1.289,4.259
	c-0.109,0.494-0.238,0.908-0.31,1.273c-0.078,0.404-0.354,0.828-0.725,1.049c-0.646,0.388-1.419,1.55-1.419,1.937
	c0,0.387,0.388,0.775,1.03,0.775c0.646,0-0.127,1.677-0.127,2.452c0,0.774,0,2.969,0.516,3.743c0.518,0.774,2.193,0.774,2.971,0.774
	c0.772,0,0.258,1.033,0.258,1.548c0,0.516,0.516,3.097,0.516,4.389c0,1.29-0.876,0.76-1.689,0.689
	c-1.24-0.108-2.807,0.131-4.097,0.647c-1.293,0.516-2.217,2.02-3.636,2.666c-1.422,0.645-2.454,0.645-3.873,0.516
	c-1.42-0.129-3.743,0.516-5.809,1.033c-2.065,0.516-2.841,0.774-4.39,0.774c-1.55,0-2.324-0.774-3.486-1.679
	c-1.162-0.903-2.84-2.71-4.389-4.129c-1.549-1.42-4.259-5.421-5.808-7.1c-1.549-1.677-5.292-6.066-6.454-8.002
	c-1.161-1.936-2.065-4.001-2.065-4.001c-0.516-1.549-1.162-2.969-1.678-4.647c-0.516-1.677-0.884-3.824-1.42-5.164
	c-1.035-2.581-2.324-4.388-2.841-5.421c-0.516-1.032-0.644-2.968-1.678-3.097c-1.032-0.129-1.678,0.903-2.71,2.324
	c-1.034,1.42-0.258,5.678-0.258,7.099c0,1.42,0.13,4.518-0.129,6.196c-0.259,1.678,0.129,4.001,1.032,4.13
	c0.903,0.129,2.969,1.42,3.873,2.323c0.903,0.904,1.938,3.614,2.97,5.422c1.031,1.807,2.324,4.775,3.099,6.195
	c0.775,1.42,1.289,3.227,2.452,5.42c1.161,2.196,2.323,4.133,2.969,4.648c0.644,0.516-1.291,0.775-2.066,0.775
	c-0.774,0-3.614,0-5.164,0c-1.548,0-2.583,0.225-3.356,0.225c-0.774,0-1.549-1.516-2.968-1.516c-1.421,0-1.645-0.647-2.552-0.401
	c-0.905,0.247-0.343,0.965-0.496,1.162c-0.207,0.259-1.098,0.247-1.864,0.362c-0.921,0.139-0.561,1.353-0.849,1.555
	C12.718,51.7,12.836,52.448,13.162,53.021z M63.282,58.111v-0.129c0,0,0,0,0.516,0c0.519,0,0.646,1.033,1.033,1.808
	c0.39,0.774-0.129,1.291-0.388,1.938c-0.258,0.645-0.902,2.58-1.549,4.258c-0.646,1.68-0.518,2.841-0.773,3.486
	c-0.26,0.645-1.032-0.129-1.678-1.291c-0.646-1.162-2.195-3.873-3.356-5.293c-1.163-1.418-2.323-3.742-3.228-4.518
	C52.957,57.598,63.282,58.111,63.282,58.111z"/>
</svg>
