<?xml version="1.0" encoding="utf-8"?>
<!-- Generator: Adobe Illustrator 16.0.0, SVG Export Plug-In . SVG Version: 6.00 Build 0)  -->
<!DOCTYPE svg PUBLIC "-//W3C//DTD SVG 1.1//EN" "http://www.w3.org/Graphics/SVG/1.1/DTD/svg11.dtd">
<svg version="1.1" id="Layer_1" xmlns="http://www.w3.org/2000/svg" xmlns:xlink="http://www.w3.org/1999/xlink" x="0px" y="0px"
	 width="59.5px" height="59.5px" viewBox="0 0 59.5 59.5" enable-background="new 0 0 59.5 59.5" xml:space="preserve">
<g>
	<path fill="none" stroke="#5C5C5C" stroke-width="2" stroke-linecap="round" stroke-linejoin="round" stroke-miterlimit="10" d="
		M24.75,4.75c-5-5-15-5-20,0s-5,15,0,20l30,30c5,5,15,5,20,0s5-15,0-20L24.75,4.75z"/>
	
		<line fill="none" stroke="#5C5C5C" stroke-width="2" stroke-linecap="round" stroke-linejoin="round" stroke-miterlimit="10" x1="13.75" y1="33.75" x2="33.75" y2="13.75"/>
	
		<line fill="none" stroke="#5C5C5C" stroke-width="2" stroke-linecap="round" stroke-linejoin="round" stroke-miterlimit="10" x1="25.75" y1="45.75" x2="45.75" y2="25.75"/>
	<g>
		<path stroke="#5C5C5C" stroke-miterlimit="10" d="M44.75,43.75c-0.553,0-1,0.447-1,1s0.447,1,1,1c0.552,0,1-0.447,1-1
			S45.302,43.75,44.75,43.75L44.75,43.75z"/>
	</g>
	<g>
		<path stroke="#5C5C5C" stroke-miterlimit="10" d="M50.75,43.75c-0.553,0-1,0.447-1,1s0.447,1,1,1c0.552,0,1-0.447,1-1
			S51.302,43.75,50.75,43.75L50.75,43.75z"/>
	</g>
	<g>
		<path stroke="#5C5C5C" stroke-miterlimit="10" d="M44.75,49.75c-0.553,0-1,0.447-1,1s0.447,1,1,1c0.552,0,1-0.447,1-1
			S45.302,49.75,44.75,49.75L44.75,49.75z"/>
	</g>
	<g>
		<path stroke="#5C5C5C" stroke-miterlimit="10" d="M42.75,37.75c-0.553,0-1,0.447-1,1s0.447,1,1,1c0.552,0,1-0.447,1-1
			S43.302,37.75,42.75,37.75L42.75,37.75z"/>
	</g>
	<g>
		<path stroke="#5C5C5C" stroke-miterlimit="10" d="M38.75,41.75c-0.553,0-1,0.447-1,1s0.447,1,1,1c0.552,0,1-0.447,1-1
			S39.302,41.75,38.75,41.75L38.75,41.75z"/>
	</g>
	<g>
		<path stroke="#5C5C5C" stroke-miterlimit="10" d="M38.75,47.75c-0.553,0-1,0.447-1,1s0.447,1,1,1c0.552,0,1-0.447,1-1
			S39.302,47.75,38.75,47.75L38.75,47.75z"/>
	</g>
	<g>
		<path stroke="#5C5C5C" stroke-miterlimit="10" d="M48.75,37.75c-0.553,0-1,0.447-1,1s0.447,1,1,1c0.552,0,1-0.447,1-1
			S49.302,37.75,48.75,37.75L48.75,37.75z"/>
	</g>
	<g>
		<path stroke="#5C5C5C" stroke-miterlimit="10" d="M14.75,13.75c-0.553,0-1,0.447-1,1s0.447,1,1,1c0.552,0,1-0.447,1-1
			S15.302,13.75,14.75,13.75L14.75,13.75z"/>
	</g>
	<g>
		<path stroke="#5C5C5C" stroke-miterlimit="10" d="M8.75,13.75c-0.553,0-1,0.447-1,1s0.447,1,1,1c0.552,0,1-0.447,1-1
			S9.302,13.75,8.75,13.75L8.75,13.75z"/>
	</g>
	<g>
		<path stroke="#5C5C5C" stroke-miterlimit="10" d="M14.75,7.75c-0.553,0-1,0.447-1,1s0.447,1,1,1c0.552,0,1-0.447,1-1
			S15.302,7.75,14.75,7.75L14.75,7.75z"/>
	</g>
	<g>
		<path stroke="#5C5C5C" stroke-miterlimit="10" d="M16.75,19.75c-0.553,0-1,0.447-1,1s0.447,1,1,1c0.552,0,1-0.447,1-1
			S17.302,19.75,16.75,19.75L16.75,19.75z"/>
	</g>
	<g>
		<path stroke="#5C5C5C" stroke-miterlimit="10" d="M20.75,15.75c-0.553,0-1,0.447-1,1s0.447,1,1,1c0.552,0,1-0.447,1-1
			S21.302,15.75,20.75,15.75L20.75,15.75z"/>
	</g>
	<g>
		<path stroke="#5C5C5C" stroke-miterlimit="10" d="M20.75,9.75c-0.553,0-1,0.447-1,1s0.447,1,1,1c0.552,0,1-0.447,1-1
			S21.302,9.75,20.75,9.75L20.75,9.75z"/>
	</g>
	<g>
		<path stroke="#5C5C5C" stroke-miterlimit="10" d="M10.75,19.75c-0.553,0-1,0.447-1,1s0.447,1,1,1c0.552,0,1-0.447,1-1
			S11.302,19.75,10.75,19.75L10.75,19.75z"/>
	</g>
</g>
</svg>
