<?xml version="1.0" encoding="utf-8"?>
<!-- Generator: Adobe Illustrator 16.0.0, SVG Export Plug-In . SVG Version: 6.00 Build 0)  -->
<!DOCTYPE svg PUBLIC "-//W3C//DTD SVG 1.1//EN" "http://www.w3.org/Graphics/SVG/1.1/DTD/svg11.dtd">
<svg version="1.1" id="Layer_1" xmlns="http://www.w3.org/2000/svg" xmlns:xlink="http://www.w3.org/1999/xlink" x="0px" y="0px"
	 width="60px" height="60px" viewBox="0 0 60 60" enable-background="new 0 0 60 60" xml:space="preserve">
<g>
	<path fill="#3A677F" d="M43,38.765v4.259c4.633,0.232,5,2.147,5,4.977v4c0,1.769-1.153,2.957-2.869,2.957c-0.553,0-1-0.448-1-1
		c0-0.553,0.447-1,1-1c0.237,0,0.869,0,0.869-0.957v-4c0-2.305,0-3-4-3c-2.052,0-3.316,0.176-3.758,0.523
		C38.021,45.697,38,46.053,38,46.948V52c0,0.483,0.263,1,1,1c0.553,0,1,0.447,1,1s-0.447,1-1,1c-1.738,0-3-1.262-3-3v-5
		c0-1.136,0-2.258,1.006-3.049c0.746-0.586,1.937-0.871,3.994-0.936v-4.527c-0.705-0.097-1.411-0.197-2.126-0.303
		c2.44-2.156,4.415-5.07,4.699-8.575c1.89-0.528,2.872-2.602,2.872-4.654c0-0.646-0.109-1.29-0.303-1.892l1.264-9.356
		c0.02-0.197,0.441-4.867-3.071-8.749C41.356,1.669,36.54,0,30.02,0S18.683,1.669,15.704,4.96c-3.513,3.881-3.09,8.552-3.067,8.779
		l1.223,9.316c-0.195,0.605-0.305,1.251-0.305,1.902c0,2.052,0.982,4.126,2.872,4.654c0.283,3.496,2.25,6.405,4.682,8.561
		c-0.372,0.055-0.738,0.107-1.108,0.16v6.77c2.279,0.465,4,2.484,4,4.898c0,2.757-2.243,5-5,5s-5-2.243-5-5
		c0-2.414,1.721-4.434,4-4.898v-6.492C9.119,39.817,0,41.12,0,50.793V60h30V44c0-0.553,0.448-1,1-1c0.553,0,1,0.447,1,1v16h28
		v-9.207C60,41.453,51.885,39.988,43,38.765z M30,40.348c-3.348,0-11.609-4.627-11.609-11.608c0-0.552-0.448-1-1-1
		c-1.453,0-1.837-1.82-1.837-2.783s0.384-2.783,1.837-2.783c0.476,0,0.886-0.336,0.98-0.803l1.108-5.51
		c7.528-0.162,9.489-2.564,10.534-4.246c1.041,1.682,2.996,4.083,10.521,4.246l1.092,5.508c0.094,0.468,0.504,0.805,0.981,0.805
		c1.453,0,1.837,1.82,1.837,2.783s-0.384,2.783-1.837,2.783c-0.552,0-1,0.448-1,1C41.608,35.721,33.348,40.348,30,40.348z"/>
	<path fill="#3A677F" d="M25.283,21.437l-0.327,0.001l-0.326-0.001c-0.95-0.007-1.932-0.015-2.603,0.65
		c-0.394,0.39-0.593,0.933-0.593,1.612c0,0.552,0.448,1,1,1s1-0.448,1-1c0-0.11,0.012-0.173,0.007-0.189
		c0.187-0.08,0.778-0.074,1.173-0.073l0.342,0.002l0.342-0.002c0.415-0.004,1.042-0.008,1.154,0.037c0,0,0.026,0.06,0.026,0.226
		c0,0.552,0.448,1,1,1s1-0.448,1-1c0-0.68-0.199-1.222-0.593-1.612C27.215,21.421,26.229,21.427,25.283,21.437z"/>
	<path fill="#3A677F" d="M38.565,23.699c0-0.68-0.199-1.222-0.593-1.612c-0.67-0.665-1.655-0.659-2.603-0.65l-0.327,0.001
		l-0.326-0.001c-0.951-0.007-1.932-0.015-2.603,0.65c-0.394,0.39-0.593,0.933-0.593,1.612c0,0.552,0.447,1,1,1c0.552,0,1-0.448,1-1
		c0-0.11,0.012-0.174,0.007-0.189c0.187-0.08,0.777-0.074,1.173-0.073l0.342,0.002l0.343-0.002c0.413-0.004,1.041-0.008,1.153,0.037
		c0,0,0.026,0.06,0.026,0.226c0,0.552,0.448,1,1,1S38.565,24.251,38.565,23.699z"/>
</g>
</svg>
