<?xml version="1.0" encoding="utf-8"?>
<!-- Generator: Adobe Illustrator 16.0.0, SVG Export Plug-In . SVG Version: 6.00 Build 0)  -->
<!DOCTYPE svg PUBLIC "-//W3C//DTD SVG 1.1//EN" "http://www.w3.org/Graphics/SVG/1.1/DTD/svg11.dtd">
<svg version="1.1" id="Layer_1" xmlns="http://www.w3.org/2000/svg" xmlns:xlink="http://www.w3.org/1999/xlink" x="0px" y="0px"
	 width="60px" height="60px" viewBox="0 0 60 60" enable-background="new 0 0 60 60" xml:space="preserve">
<g>
	<path fill="none" stroke="#3A677F" stroke-width="2" stroke-linecap="round" stroke-miterlimit="10" d="M22.435,23.699
		c0-1.393,1.13-1.261,2.521-1.261c1.393,0,2.522-0.132,2.522,1.261"/>
	<path fill="none" stroke="#3A677F" stroke-width="2" stroke-linecap="round" stroke-miterlimit="10" d="M32.521,23.699
		c0-1.393,1.129-1.261,2.521-1.261s2.522-0.132,2.522,1.261"/>
	<path fill="none" stroke="#3A677F" stroke-width="2" stroke-linecap="round" stroke-miterlimit="10" d="M23.405,38.826
		C12.57,40.662,1,40.285,1,50.793V59h58v-8.207c0-10.512-11.285-10.064-22.517-11.967"/>
	<path fill="none" stroke="#3A677F" stroke-width="2" stroke-linecap="round" stroke-linejoin="round" stroke-miterlimit="10" d="
		M30,41.348c3.782,0,12.608-5.043,12.608-12.608c3.782,0,3.782-7.565,0-7.565l-1.251-6.304c-10.087,0-10.082-3.783-11.343-5.043
		c-1.261,1.261-1.269,5.043-11.355,5.043l-1.268,6.304c-3.783,0-3.783,7.565,0,7.565C17.391,36.305,26.217,41.348,30,41.348z"/>
	<path fill="none" stroke="#3A677F" stroke-width="2" stroke-linecap="round" stroke-miterlimit="10" d="M45.131,23.094l1.28-9.485
		c0,0,1.261-12.609-16.392-12.609S13.628,13.609,13.628,13.609l1.241,9.458"/>
	<circle fill="none" stroke="#3A677F" stroke-width="2" stroke-linecap="round" stroke-miterlimit="10" cx="19" cy="50" r="4"/>
	
		<line fill="none" stroke="#3A677F" stroke-width="2" stroke-linecap="round" stroke-miterlimit="10" x1="19" y1="39.482" x2="19" y2="46"/>
	
		<line fill="none" stroke="#3A677F" stroke-width="2" stroke-linecap="round" stroke-miterlimit="10" x1="42" y1="39.637" x2="42" y2="44"/>
	<path fill="none" stroke="#3A677F" stroke-width="2" stroke-linecap="round" stroke-miterlimit="10" d="M39,54
		c-1.261,0-2-0.919-2-2v-5c0-2-0.044-3,5-3"/>
	<path fill="none" stroke="#3A677F" stroke-width="2" stroke-linecap="round" stroke-miterlimit="10" d="M45.131,53.957
		C46.391,53.957,47,53.081,47,52v-4c0-2.48,0-4-5-4"/>
	
		<line fill="none" stroke="#3A677F" stroke-width="2" stroke-linecap="round" stroke-miterlimit="10" x1="31" y1="41.348" x2="31" y2="59"/>
</g>
</svg>
