<?xml version="1.0" encoding="utf-8"?>
<!-- Generator: Adobe Illustrator 16.0.0, SVG Export Plug-In . SVG Version: 6.00 Build 0)  -->
<!DOCTYPE svg PUBLIC "-//W3C//DTD SVG 1.1//EN" "http://www.w3.org/Graphics/SVG/1.1/DTD/svg11.dtd">
<svg version="1.1" id="Layer_1" xmlns="http://www.w3.org/2000/svg" xmlns:xlink="http://www.w3.org/1999/xlink" x="0px" y="0px"
	 width="60px" height="60px" viewBox="0 0 60 60" enable-background="new 0 0 60 60" xml:space="preserve">
<path fill="#FFFFFF" stroke="#D8D8D8" stroke-width="2" stroke-linecap="round" stroke-linejoin="round" stroke-miterlimit="10" d="
	M51.436,10.469c0,0-1.262,6.923-6.305,9.445c-5.043-1.261-10.088,2.522-8.826,2.522s2.521,5.043,2.521,5.043
	c1.262,1.261,3.783,0,3.783,0c3.152,3.151-5.043,8.826-5.043,10.087s3.149,1.891,1.26,3.781c-1.891,1.893-3.783,2.521-3.783,2.521
	c0,6.305-6.303,6.305-7.564,6.305s-3.783-5.043-3.783-6.305c0-1.26,1.262-2.521,1.262-3.783c0-1.26-2.521-3.781-2.521-3.781
	c0-5.045-3.783-3.781-7.566-3.781c-3.781,0-3.781-5.044-3.781-5.044s0-8.826,6.303-10.088c6.305-1.261,6.305,1.262,6.305,1.262
	c2.521,2.521,7.565,0,10.088,0c0,0,1.26-8.825-1.263-7.565C30,12.349,27.74,11.373,27.479,8.566
	c-0.367-3.942,11.003-6.305,11.003-6.305"/>
<path fill="none" stroke="#48B2E4" stroke-width="2" stroke-linecap="round" stroke-linejoin="round" stroke-miterlimit="10" d="
	M1,30C1,13.983,13.984,1,30,1"/>
<path fill="none" stroke="#48B2E4" stroke-width="2" stroke-linecap="round" stroke-linejoin="round" stroke-miterlimit="10" d="
	M30,1c16.016,0,29,12.983,29,29c0,16.016-12.984,29-29,29C13.984,59,1,46.016,1,30"/>
</svg>
