<?xml version="1.0" encoding="utf-8"?>
<!-- Generator: Adobe Illustrator 16.0.0, SVG Export Plug-In . SVG Version: 6.00 Build 0)  -->
<!DOCTYPE svg PUBLIC "-//W3C//DTD SVG 1.1//EN" "http://www.w3.org/Graphics/SVG/1.1/DTD/svg11.dtd">
<svg version="1.1" id="Layer_1" xmlns="http://www.w3.org/2000/svg" xmlns:xlink="http://www.w3.org/1999/xlink" x="0px" y="0px"
	 width="60px" height="59.963px" viewBox="0 0 60 59.963" enable-background="new 0 0 60 59.963" xml:space="preserve">
<g>
	<path fill="none" stroke="#3A677F" stroke-width="2" stroke-linecap="round" stroke-linejoin="round" stroke-miterlimit="10" d="
		M39,18c-3.036,2.025-4.6,5.895,0,9c2.522,6.303,7.225,4.924,10,2c2.775-2.926,4.051-11.533,2-16C46.566,16.344,42.783,15.479,39,18
		z"/>
	<path fill="none" stroke="#3A677F" stroke-width="2" stroke-linecap="round" stroke-linejoin="round" stroke-miterlimit="10" d="
		M31,9c3.266,3.844,4.783,9.604-3,13c-3.563,7.951-9.395,5.248-13,1S9.825,7,13,1C18.855,5.951,26.922,4.191,31,9z"/>
	<path fill="none" stroke="#3A677F" stroke-width="2" stroke-linecap="round" stroke-linejoin="round" stroke-miterlimit="10" d="
		M45,22c-7.566,3.783-11,14-11,14s-3.391-14.652-16-26"/>
	
		<rect x="1" y="37" fill="none" stroke="#3A677F" stroke-width="2" stroke-linejoin="round" stroke-miterlimit="10" width="10" height="18"/>
	<path fill="none" stroke="#3A677F" stroke-width="2" stroke-linecap="round" stroke-linejoin="round" stroke-miterlimit="10" d="
		M11,52.844C37.301,61.611,28.942,62.029,59,47c-2.662-2.662-4.766-3.709-7.514-2.922l-10.823,3.59"/>
	<path fill="none" stroke="#3A677F" stroke-width="2" stroke-linecap="round" stroke-linejoin="round" stroke-miterlimit="10" d="
		M11,39h8c5.895,0,9.748,2.992,11,3.986c3.336,0.029,3.597,0,8,0c3.974,0,3.974,6.014,0,6.014H24"/>
</g>
</svg>
