<?xml version="1.0" encoding="utf-8"?>
<!-- Generator: Adobe Illustrator 16.0.0, SVG Export Plug-In . SVG Version: 6.00 Build 0)  -->
<!DOCTYPE svg PUBLIC "-//W3C//DTD SVG 1.1//EN" "http://www.w3.org/Graphics/SVG/1.1/DTD/svg11.dtd">
<svg version="1.1" id="Layer_1" xmlns="http://www.w3.org/2000/svg" xmlns:xlink="http://www.w3.org/1999/xlink" x="0px" y="0px"
	 width="60px" height="60px" viewBox="0 0 60 60" enable-background="new 0 0 60 60" xml:space="preserve">
<g>
	
		<polyline fill="none" stroke="#3A677F" stroke-width="2" stroke-linecap="round" stroke-linejoin="round" stroke-miterlimit="10" points="
		1,59 1,31 17,31 17,59 	"/>
	
		<line fill="none" stroke="#3A677F" stroke-width="2" stroke-linecap="round" stroke-linejoin="round" stroke-miterlimit="10" x1="1" y1="59" x2="59" y2="59"/>
	
		<line fill="none" stroke="#3A677F" stroke-width="2" stroke-linecap="round" stroke-linejoin="round" stroke-miterlimit="10" x1="5" y1="35" x2="13" y2="35"/>
	
		<line fill="none" stroke="#3A677F" stroke-width="2" stroke-linecap="round" stroke-linejoin="round" stroke-miterlimit="10" x1="5" y1="39" x2="13" y2="39"/>
	
		<line fill="none" stroke="#3A677F" stroke-width="2" stroke-linecap="round" stroke-linejoin="round" stroke-miterlimit="10" x1="5" y1="43" x2="13" y2="43"/>
	
		<line fill="none" stroke="#3A677F" stroke-width="2" stroke-linecap="round" stroke-linejoin="round" stroke-miterlimit="10" x1="5" y1="47" x2="13" y2="47"/>
	
		<line fill="none" stroke="#3A677F" stroke-width="2" stroke-linecap="round" stroke-linejoin="round" stroke-miterlimit="10" x1="5" y1="51" x2="13" y2="51"/>
	
		<polyline fill="none" stroke="#3A677F" stroke-width="2" stroke-linecap="round" stroke-linejoin="round" stroke-miterlimit="10" points="
		43,59 43,31 59,31 59,59 	"/>
	
		<line fill="none" stroke="#3A677F" stroke-width="2" stroke-linecap="round" stroke-linejoin="round" stroke-miterlimit="10" x1="47" y1="35" x2="55" y2="35"/>
	
		<line fill="none" stroke="#3A677F" stroke-width="2" stroke-linecap="round" stroke-linejoin="round" stroke-miterlimit="10" x1="47" y1="39" x2="55" y2="39"/>
	
		<line fill="none" stroke="#3A677F" stroke-width="2" stroke-linecap="round" stroke-linejoin="round" stroke-miterlimit="10" x1="47" y1="43" x2="55" y2="43"/>
	
		<line fill="none" stroke="#3A677F" stroke-width="2" stroke-linecap="round" stroke-linejoin="round" stroke-miterlimit="10" x1="47" y1="47" x2="55" y2="47"/>
	
		<line fill="none" stroke="#3A677F" stroke-width="2" stroke-linecap="round" stroke-linejoin="round" stroke-miterlimit="10" x1="47" y1="51" x2="55" y2="51"/>
	
		<line fill="none" stroke="#3A677F" stroke-width="2" stroke-linecap="round" stroke-linejoin="round" stroke-miterlimit="10" x1="21" y1="49" x2="23" y2="49"/>
	
		<line fill="none" stroke="#3A677F" stroke-width="2" stroke-linecap="round" stroke-linejoin="round" stroke-miterlimit="10" x1="29" y1="49" x2="31" y2="49"/>
	
		<line fill="none" stroke="#3A677F" stroke-width="2" stroke-linecap="round" stroke-linejoin="round" stroke-miterlimit="10" x1="37" y1="49" x2="39" y2="49"/>
	
		<line fill="none" stroke="#3A677F" stroke-width="2" stroke-linecap="round" stroke-linejoin="round" stroke-miterlimit="10" x1="21" y1="43" x2="23" y2="43"/>
	
		<line fill="none" stroke="#3A677F" stroke-width="2" stroke-linecap="round" stroke-linejoin="round" stroke-miterlimit="10" x1="29" y1="43" x2="31" y2="43"/>
	
		<line fill="none" stroke="#3A677F" stroke-width="2" stroke-linecap="round" stroke-linejoin="round" stroke-miterlimit="10" x1="37" y1="43" x2="39" y2="43"/>
	
		<line fill="none" stroke="#3A677F" stroke-width="2" stroke-linecap="round" stroke-linejoin="round" stroke-miterlimit="10" x1="21" y1="37" x2="23" y2="37"/>
	
		<line fill="none" stroke="#3A677F" stroke-width="2" stroke-linecap="round" stroke-linejoin="round" stroke-miterlimit="10" x1="29" y1="37" x2="31" y2="37"/>
	
		<line fill="none" stroke="#3A677F" stroke-width="2" stroke-linecap="round" stroke-linejoin="round" stroke-miterlimit="10" x1="37" y1="37" x2="39" y2="37"/>
	
		<rect x="27" y="55" fill="none" stroke="#3A677F" stroke-width="2" stroke-linecap="round" stroke-linejoin="round" stroke-miterlimit="10" width="6" height="4"/>
	
		<circle fill="none" stroke="#3A677F" stroke-width="2" stroke-linecap="round" stroke-linejoin="round" stroke-miterlimit="10" cx="30" cy="16" r="15"/>
	
		<polygon fill="none" stroke="#3A677F" stroke-width="2" stroke-linecap="round" stroke-linejoin="round" stroke-miterlimit="10" points="
		39,13 33,13 33,7 27,7 27,13 21,13 21,19 27,19 27,25 33,25 33,19 39,19 	"/>
	
		<line fill="none" stroke="#3A677F" stroke-width="2" stroke-linecap="round" stroke-linejoin="round" stroke-miterlimit="10" x1="17" y1="31" x2="17" y2="23.482"/>
	
		<line fill="none" stroke="#3A677F" stroke-width="2" stroke-linecap="round" stroke-linejoin="round" stroke-miterlimit="10" x1="43" y1="31" x2="43" y2="23.482"/>
</g>
</svg>
