<?xml version="1.0" encoding="utf-8"?>
<!-- Generator: Adobe Illustrator 16.0.0, SVG Export Plug-In . SVG Version: 6.00 Build 0)  -->
<!DOCTYPE svg PUBLIC "-//W3C//DTD SVG 1.1//EN" "http://www.w3.org/Graphics/SVG/1.1/DTD/svg11.dtd">
<svg version="1.1" id="Layer_1" xmlns="http://www.w3.org/2000/svg" xmlns:xlink="http://www.w3.org/1999/xlink" x="0px" y="0px"
	 width="60px" height="60px" viewBox="0 0 60 60" enable-background="new 0 0 60 60" xml:space="preserve">
<g>
	
		<line fill="none" stroke="#3A677F" stroke-width="2" stroke-linecap="round" stroke-linejoin="round" stroke-miterlimit="10" x1="1" y1="43" x2="23" y2="43"/>
	<path fill="none" stroke="#3A677F" stroke-width="2" stroke-linecap="round" stroke-linejoin="round" stroke-miterlimit="10" d="
		M1,59h46c5.5,0,10-4.5,10-10V27c0-5.5-4.5-10-10-10H26.943"/>
	
		<rect x="13.549" y="6.789" transform="matrix(0.9428 0.3333 -0.3333 0.9428 7.1798 -5.5803)" fill="none" stroke="#3A677F" stroke-width="2" stroke-linecap="round" stroke-linejoin="round" stroke-miterlimit="10" width="12.611" height="22.694"/>
	
		<rect x="21.954" y="2.536" transform="matrix(0.9428 0.3334 -0.3334 0.9428 3.0868 -7.8703)" fill="none" stroke="#3A677F" stroke-width="2" stroke-linecap="round" stroke-linejoin="round" stroke-miterlimit="10" width="5.044" height="5.046"/>
	
		<line fill="none" stroke="#3A677F" stroke-width="2" stroke-linecap="round" stroke-linejoin="round" stroke-miterlimit="10" x1="20.562" y1="1" x2="30.072" y2="4.361"/>
	<path fill="none" stroke="#3A677F" stroke-width="2" stroke-linejoin="round" stroke-miterlimit="10" d="M14,43l5,8h20
		c5.57,0,8-3.43,8-9v-5c0-5.57-2-10-8-10h-5l-7.771-7.771"/>
	
		<line fill="none" stroke="#3A677F" stroke-width="2" stroke-linejoin="round" stroke-miterlimit="10" x1="7" y1="43" x2="7" y2="59"/>
	
		<rect x="11.101" y="28.2" transform="matrix(0.9425 0.3341 -0.3341 0.9425 11.4668 -2.713)" fill="none" stroke="#3A677F" stroke-width="2" stroke-linecap="round" stroke-linejoin="round" stroke-miterlimit="10" width="5.04" height="7.564"/>
	
		<line fill="none" stroke="#3A677F" stroke-width="2" stroke-linecap="round" stroke-linejoin="round" stroke-miterlimit="10" x1="45" y1="59" x2="59" y2="59"/>
</g>
</svg>
