<?xml version="1.0" encoding="utf-8"?>
<!-- Generator: Adobe Illustrator 16.0.0, SVG Export Plug-In . SVG Version: 6.00 Build 0)  -->
<!DOCTYPE svg PUBLIC "-//W3C//DTD SVG 1.1//EN" "http://www.w3.org/Graphics/SVG/1.1/DTD/svg11.dtd">
<svg version="1.1" id="Layer_1" xmlns="http://www.w3.org/2000/svg" xmlns:xlink="http://www.w3.org/1999/xlink" x="0px" y="0px"
	 width="46px" height="60px" viewBox="0 0 46 60" enable-background="new 0 0 46 60" xml:space="preserve">
<g>
	
		<polyline fill="none" stroke="#3A677F" stroke-width="2" stroke-linecap="round" stroke-linejoin="round" stroke-miterlimit="10" points="
		33,9 45,9 45,59 1,59 1,9 13,9 	"/>
	<path fill="none" stroke="#3A677F" stroke-width="2" stroke-linecap="round" stroke-linejoin="round" stroke-miterlimit="10" d="
		M29,7c0-4-3-6-6-6s-6,2-6,6h-4v8h20V7H29z"/>
	
		<polyline fill="none" stroke="#3A677F" stroke-width="2" stroke-linecap="round" stroke-linejoin="round" stroke-miterlimit="10" points="
		13,13 5,13 5,53 41,53 41,13 33,13 	"/>
	<polyline fill="none" stroke="#3A677F" stroke-width="2" stroke-linejoin="round" stroke-miterlimit="10" points="5,35 11,35 
		15,29 19,39 25,25 31,43 35,35 41,35 	"/>
</g>
</svg>
