<?xml version="1.0" encoding="utf-8"?>
<!-- Generator: Adobe Illustrator 16.0.0, SVG Export Plug-In . SVG Version: 6.00 Build 0)  -->
<!DOCTYPE svg PUBLIC "-//W3C//DTD SVG 1.1//EN" "http://www.w3.org/Graphics/SVG/1.1/DTD/svg11.dtd">
<svg version="1.1" id="Layer_1" xmlns="http://www.w3.org/2000/svg" xmlns:xlink="http://www.w3.org/1999/xlink" x="0px" y="0px"
	 width="54px" height="60px" viewBox="0 0 54 60" enable-background="new 0 0 54 60" xml:space="preserve">
<g>
	<path fill="none" stroke="#3A677F" stroke-width="2" stroke-linecap="round" stroke-linejoin="round" stroke-miterlimit="10" d="
		M11,5c0,2.209-1.791,4-4,4V1C9.209,1,11,2.791,11,5z"/>
	<path fill="none" stroke="#3A677F" stroke-width="2" stroke-linecap="round" stroke-linejoin="round" stroke-miterlimit="10" d="
		M19,5c0-2.209,1.791-4,4-4v8C20.791,9,19,7.209,19,5z"/>
	<path fill="none" stroke="#3A677F" stroke-width="2" stroke-linecap="round" stroke-linejoin="round" stroke-miterlimit="10" d="
		M7,5c-3.314,0-6,2.686-6,6v12c0,7.732,6.268,14,14,14s14-6.268,14-14V11c0-3.314-2.686-6-6-6"/>
	<path fill="none" stroke="#3A677F" stroke-width="2" stroke-linecap="round" stroke-linejoin="round" stroke-miterlimit="10" d="
		M15,37v17c0,2.762,2.238,5,5,5s5-2.238,5-5V43c0-3.314,2.687-6,6-6s6,2.686,6,6v6c0,2.762,2.238,5,5,5s5-2.238,5-5V31"/>
	
		<circle fill="none" stroke="#3A677F" stroke-width="2" stroke-linecap="round" stroke-linejoin="round" stroke-miterlimit="10" cx="47" cy="25" r="6"/>
</g>
</svg>
