<?xml version="1.0" encoding="utf-8"?>
<!-- Generator: Adobe Illustrator 16.0.0, SVG Export Plug-In . SVG Version: 6.00 Build 0)  -->
<!DOCTYPE svg PUBLIC "-//W3C//DTD SVG 1.1//EN" "http://www.w3.org/Graphics/SVG/1.1/DTD/svg11.dtd">
<svg version="1.1" id="Layer_1" xmlns="http://www.w3.org/2000/svg" xmlns:xlink="http://www.w3.org/1999/xlink" x="0px" y="0px"
	 width="59px" height="59.001px" viewBox="0 0 59 59.001" enable-background="new 0 0 59 59.001" xml:space="preserve">
<g>
	<path fill="none" stroke="#48B2E4" stroke-width="2" stroke-miterlimit="10" d="M10,16.542v3.459l-6.577,1.742
		C2.091,22.125,1,23.57,1,24.958v1.043h14.869"/>
	<path fill="none" stroke="#48B2E4" stroke-width="2" stroke-miterlimit="10" d="M17,16.63v3.371l6.791,1.742
		C25.126,22.125,26,23.614,26,25.001v1H13.348"/>
	<ellipse fill="none" stroke="#48B2E4" stroke-width="2" stroke-miterlimit="10" cx="13.608" cy="9.25" rx="7.565" ry="8.25"/>
	<path fill="none" stroke="#48B2E4" stroke-width="2" stroke-linejoin="round" stroke-miterlimit="10" d="M21.096,7.806
		c-1.262,1.261-4.867,1.199-6.227-1.332c-2.521,2.521-6.62,2.521-8.658,1.083"/>
	<path fill="none" stroke="#366880" stroke-width="2" stroke-miterlimit="10" d="M42,16.523v3.479l-6.577,1.742
		C34.091,22.125,33,23.57,33,24.958v1.043h14.869"/>
	<path fill="none" stroke="#366880" stroke-width="2" stroke-miterlimit="10" d="M49,16.621v3.381l6.791,1.742
		C57.126,22.125,58,23.614,58,25.001v1H45.348"/>
	<ellipse fill="none" stroke="#366880" stroke-width="2" stroke-miterlimit="10" cx="45.607" cy="9.25" rx="7.565" ry="8.25"/>
	<path fill="none" stroke="#366880" stroke-width="2" stroke-linejoin="round" stroke-miterlimit="10" d="M53.096,7.806
		c-1.262,1.261-4.867,1.199-6.227-1.332c-2.521,2.521-6.62,2.521-8.658,1.083"/>
	<path fill="none" stroke="#2C87CC" stroke-width="2" stroke-miterlimit="10" d="M25.217,48.179v3.518l-6.402,1.83
		c-1.332,0.381-2.424,1.826-2.424,3.215v1.26h13.871"/>
	<path fill="none" stroke="#2C87CC" stroke-width="2" stroke-miterlimit="10" d="M32.782,48.179v3.518l6.399,1.83
		c1.336,0.381,2.426,1.826,2.426,3.215v1.26H27.739"/>
	<ellipse fill="none" stroke="#2C87CC" stroke-width="2" stroke-miterlimit="10" cx="29" cy="41.032" rx="7.564" ry="8.25"/>
	<path fill="none" stroke="#2C87CC" stroke-width="2" stroke-linejoin="round" stroke-miterlimit="10" d="M36.447,39.519
		c-1.262,1.26-4.827,1.27-6.188-1.262c-2.521,2.521-6.62,2.521-8.659,1.082"/>
	
		<line fill="none" stroke="#D8D8D8" stroke-width="2" stroke-linecap="round" stroke-miterlimit="10" x1="8.826" y1="30.261" x2="15.131" y2="36.565"/>
	
		<line fill="none" stroke="#D8D8D8" stroke-width="2" stroke-linecap="round" stroke-miterlimit="10" x1="49.174" y1="30.261" x2="42.869" y2="36.565"/>
</g>
<line fill="none" stroke="#D8D8D8" stroke-width="2" stroke-linecap="round" stroke-miterlimit="10" x1="33.639" y1="9.251" x2="24.973" y2="9.251"/>
</svg>
