<?xml version="1.0" encoding="utf-8"?>
<!-- Generator: Adobe Illustrator 16.0.0, SVG Export Plug-In . SVG Version: 6.00 Build 0)  -->
<!DOCTYPE svg PUBLIC "-//W3C//DTD SVG 1.1//EN" "http://www.w3.org/Graphics/SVG/1.1/DTD/svg11.dtd">
<svg version="1.1" id="Layer_1" xmlns="http://www.w3.org/2000/svg" xmlns:xlink="http://www.w3.org/1999/xlink" x="0px" y="0px"
	 width="60px" height="53px" viewBox="0 0 60 53" enable-background="new 0 0 60 53" xml:space="preserve">
<g>
	<path fill="none" stroke="#5C5C5C" stroke-width="2" stroke-linecap="round" stroke-linejoin="round" stroke-miterlimit="10" d="
		M50,37L50,37c2.089,0,4,1,4,4c0,2.09-1.911,3-4,3h-3c2.089,0,4,0.91,4,3s-0.911,3-3,3c0,0-10.695,0-17,0c-7.188,0-9.174-1.739-18-3
		V26c6.179,0,17-11.592,17-21.679c0-3.987,5.52-5.471,7.565,1.812C38.826,10.625,35,20,35,20h20c2.089,0,4,1.911,4,4
		c0,2.09-1.286,5-4,5h-3.146C54.567,29,57,30.91,57,33s-1.911,4-4,4H50"/>
	
		<polygon fill="none" stroke="#5C5C5C" stroke-width="2" stroke-linecap="round" stroke-linejoin="round" stroke-miterlimit="10" points="
		13,52 1,52 1,21.973 13,22 	"/>
	<g>
		<path fill="#231F20" stroke="#5C5C5C" stroke-miterlimit="10" d="M8.565,45.931c-0.696,0-1.261,0.562-1.261,1.26
			c0,0.695,0.565,1.26,1.261,1.26s1.261-0.564,1.261-1.26C9.826,46.494,9.262,45.931,8.565,45.931L8.565,45.931z"/>
	</g>
</g>
</svg>
