<?xml version="1.0" encoding="utf-8"?>
<!-- Generator: Adobe Illustrator 16.0.0, SVG Export Plug-In . SVG Version: 6.00 Build 0)  -->
<!DOCTYPE svg PUBLIC "-//W3C//DTD SVG 1.1//EN" "http://www.w3.org/Graphics/SVG/1.1/DTD/svg11.dtd">
<svg version="1.1" id="Layer_1" xmlns="http://www.w3.org/2000/svg" xmlns:xlink="http://www.w3.org/1999/xlink" x="0px" y="0px"
	 width="100px" height="100px" viewBox="0 0 100 100" enable-background="new 0 0 100 100" xml:space="preserve">
<path fill="#3A677F" d="M85.95,5.021c-0.491-0.149-0.541,0.527-0.988,0.488c-0.53-0.049-0.81,0.486-0.965,0.643
	c-0.015,0.014-0.289-0.112-0.692,0.049c-0.256,0.103-0.888,0.866-1.045,1.061c-0.154,0.196-0.416-0.05-0.885-0.208
	c-0.469-0.155-1.245,0.094-1.753,0.29c-0.509,0.196-1.144,1.475-1.417,1.983c-0.273,0.508-0.938,1.096-1.486,1.564
	c-0.548,0.47-0.898,1.291-0.898,1.76c0,0.47-0.079,1.332-0.508,1.8c-0.431,0.47-2.777,2.27-3.443,2.778
	c-0.664,0.508-2.27,1.486-3.794,2.542c-1.525,1.057-2.464,1.995-3.441,2.739c-0.979,0.743-1.8,1.525-2.543,2.072
	c-0.743,0.548-1.879,1.605-2.896,2.348c-1.018,0.743-2.426,2.189-3.09,2.816c-0.666,0.625-2.073,2.19-2.698,2.778
	c-0.628,0.586-1.88,1.798-2.505,2.308c-0.625,0.509-1.056,0.547-1.721,0.744c-0.666,0.194-1.721,0.547-2.229,0.781
	c-0.509,0.235-2.074,1.332-2.66,1.8c-0.587,0.469-1.487,1.839-1.643,2.111c-0.156,0.274-0.469,0.041-0.822-0.156
	c-0.351-0.195-1.172-0.469-1.995-0.664c-0.822-0.196-0.939-0.236-1.33-0.626c-0.392-0.39-0.743-0.665-1.057-0.9
	c-0.313-0.234-0.901-1.934-1.176-2.598c-0.273-0.665-1.31-2.203-1.819-2.986c-0.508-0.783-2.214-3.078-2.839-3.821
	c-0.627-0.743-2.911-3.413-3.928-4.313c-1.017-0.898-2.874-1.927-3.751-1.752c-0.69,0.139-1.43,1.467-1.938,2.327
	c-0.508,0.86-1.448,3.013-1.448,3.013c-0.704,1.485-1.369,3.285-1.369,3.285c-0.43,1.058-1.408,4.068-1.642,5.085
	c-0.236,1.017-0.783,2.621-1.096,3.637c-0.313,1.017-0.625,2.464-0.979,3.326c-0.351,0.86-0.684,1.244-0.958,1.518
	s-0.449,0.516-0.488,0.947c-0.039,0.429,0.024,0.54,0.103,0.736c0.078,0.195,0.053,0.319-0.181,0.67
	c-0.235,0.352,0.353,0.939,0.353,0.939c0,0.274,0.234,0.782,0.234,0.782c0.364,0.521,0.104,1.566,0.313,2.348
	c0.208,0.783,0.852,0.983,1.112,1.192c0.26,0.208,0.156,0.769,0,2.072c-0.156,1.303,0.453,4.403,0.818,5.759
	c0.366,1.355,0.363,3.688,0.366,5.006c0,0.385-2.06,0.057-2.478,0.215c-0.417,0.156-0.06,3.349,0.097,4.183s0.499,3.548,0.499,4.382
	c0,0.835,0.309,4.374,0.388,5.882c0.08,1.486-0.166,5.116-0.166,6.157c0,1.043-0.286,3.338-0.012,5.262
	c0.288,2.008,1.257,2.891,2.535,3.359c1.16,0.425,4.125,0.568,5.342,0.396c1.699-0.242,5.143-0.656,6.534-0.898
	c1.548-0.271,5.033-0.815,6.693-1.432c1.942-0.724,4.806-1.959,5.88-2.478c1.499-0.724,4.112-2.478,5.261-3.155
	c1.012-0.596,3.327-1.951,4.266-2.68c0.881-0.684,2.437-1.793,3.114-2.314c0.679-0.521,1.692-0.615,2.252-0.748
	c0.659-0.154,2.763-1.156,3.752-1.471c1.269-0.398,3.996-2.374,4.701-2.924c0.94-0.729,2.243-2.45,2.505-2.139
	c0.26,0.313-0.365,1.147-0.574,1.826c-0.207,0.678-1.095,2.973-1.615,4.067c-0.522,1.097-1.185,3.463-1.185,3.463
	c-0.42,0.991-1.015,2.476-1.569,3.584c-0.523,1.048-1.287,2.056-0.951,3.177c0.229,0.762,1.178,1.327,2.117,1.483
	c0.938,0.156,2.367,0.185,3.15-0.181c0.783-0.366,2.086-1.305,3.077-1.305s3.428,0.744,4.575,1.161
	c1.146,0.418,2.18,0.548,3.015,0.503c0.955-0.052,2.308,0.286,2.506-0.529c0.12-0.493-0.114-0.975-0.284-1.061
	c-0.152-0.074-0.562-0.259-0.728-0.309c-0.293-0.09-0.608-0.16-0.854-0.225c-0.763-0.199-1.361-0.484-2.246-0.693
	c-0.89-0.207-1.967-0.772-3.113-1.19c-1.147-0.42-2.035-1.101-2.713-1.413s-0.625-1.98-0.573-2.503s1.185,0.116,1.721,0.208
	c0.375,0.062,0.448-1.629,0.607-2.488c0.192-1.045,0.464-2.011,0.954-2.662c0.334-0.442,1.695-2.226,2.179-2.83
	c0.62-0.772,1.658-2.448,2.282-3.752c0.627-1.306,1.488-3.078,1.904-3.963c0.42-0.891,1.408-2.297,1.826-3.185
	s0.313-1.878,0.209-3.13c-0.104-1.251-1.307-2.738-2.142-3.416c-0.835-0.68-2.744-0.632-3.942-0.58
	c-1.199,0.052-3.638,0.754-5.15,1.275c-1.512,0.521-3.885,1.891-4.823,2.41c-0.938,0.523-1.994,1.186-2.203,1.186
	s-0.308-0.875-0.358-1.709c-0.053-0.834-0.572-3.023-0.938-4.119s-0.691-1.814-0.953-3.014c-0.26-1.199-1.654-2.934-2.332-3.717
	c-0.68-0.781-0.992-2.034-1.199-2.711c-0.209-0.679-1.253-2.085-1.826-2.712c-0.574-0.625-4.225-2.948-4.225-2.948
	s0.508-0.312,0.821-0.508c0.313-0.196,1.446-1.252,1.877-1.644c0.431-0.391,2.543-2.738,3.053-3.442
	c0.509-0.703,2.188-2.855,2.658-3.637c0.471-0.783,2.112-3.012,2.31-3.325c0.195-0.313,0.978-0.9,1.446-1.251
	c0.47-0.353,1.447-1.448,2.11-2.152c0.664-0.704,2.936-2.347,3.482-2.855c0.549-0.506,2.19-1.916,3.014-2.739
	c0.82-0.821,2.308-2.503,2.697-2.816c0.391-0.313,1.525-1.056,2.034-1.565c0.509-0.508,0.978-1.369,1.175-1.759
	c0.194-0.392,1.366-1.488,1.916-1.997c0.547-0.508,1.172-1.681,1.446-2.15c0.274-0.468,1.035-1.288,1.427-1.835
	c0.391-0.548,1.129-1.452,1.754-2.156C85.766,6.155,86.441,5.17,85.95,5.021z M20.067,44.477c-0.115,0.256-0.395,0.919-0.589,1.266
	c-0.241,0.429-0.26-0.574-0.26-0.939c0-0.365-0.156-1.408-0.261-2.191c-0.104-0.782,0.155-1.459,0.365-2.085
	c0.209-0.625,1.565-2.764,2.086-3.859c0.521-1.095,1.356-2.607,1.877-3.286c0.521-0.678,1.199-1.617,1.616-1.878
	c0.418-0.261,1.252,1.044,1.252,1.044s0.991,1.512,1.617,2.294c0.625,0.782,1.459,1.147,1.042,1.356
	c-0.418,0.209-0.907-0.492-1.213-0.625c-0.348-0.152-0.801,0.022-0.999,0.324c-0.241,0.371-0.343,1.082-0.552,1.343
	c-0.208,0.26-0.574,0.104-0.886,0.209c-0.314,0.104-0.104,0.521-0.418,0.729c-0.313,0.208-0.47,0.418-0.782,0.678
	c-0.313,0.259-0.76-0.006-0.962-0.171c-0.236-0.192-0.662-0.22-0.906,0.093c-0.302,0.387-0.27,1.746-0.27,2.425
	c0,0.677-0.208,1.146-0.574,1.355s-0.623,0.444-0.887,0.94C20.267,43.681,20.182,44.222,20.067,44.477z M28.157,57.296
	c0.321-0.026,1.232,0.347,1.651-0.457c0.319-0.608,0.286-1.741,0.008-2.276c-0.186-0.361-0.521-0.791-0.616-0.91
	c1.818-0.592,2.955-1.807,3.385-2.383c0.608-0.812,1.777-3.241,2.424-3.349c0.582-0.095,2.165,2.199,2.558,2.558
	c0.959,0.88,2.564,2.304,2.981,3.346c0.418,1.043,1.46,2.188,2.399,3.13c0.94,0.938,3.129,2.712,3.859,3.859
	c0.731,1.146,1.566,2.293,1.774,2.92c0.136,0.41,0.834,0.974,0.834,1.617c0,0.574-0.098,0.557-0.365,0.99
	c-0.418,0.678-0.886,1.148-1.513,1.721c-0.625,0.574-0.938,1.201-1.564,1.513c-1.387,0.692-3.233,1.356-4.276,2.399
	s-2.086,2.922-2.295,4.174c-0.208,1.25-0.312,1.668-0.73,2.086c0,0-2.973,1.096-4.328,1.824c-1.357,0.729-4.746,2.557-5.789,3.077
	c-1.043,0.521-3.182,1.669-3.182,1.669s-1.097,1.043-1.2,0.209c-0.104-0.834,0.626-2.189,0.626-3.965c0-1.773,0-5.111-0.418-6.885
	c-0.355-1.512-0.19-9.167-1.581-9.743c-0.244-0.101-0.725,0.226-0.961-1.098c-0.388-2.154-0.452-4.231,0.121-4.628
	c3.607-2.495,0.882-4.075,0.07-5.09c-0.458-0.567-0.633-1-0.794-1.4c-0.159-0.398-0.603-1.873-0.561-1.823
	c0.225,0.271,0.765,1.106,1.226,1.616c1.354,1.496,2.238,2.141,3.884,2.156c0.023,0.252-0.208,0.568-0.269,1.164
	c-0.077,0.769,0.083,1.438,0.716,1.938C26.932,57.809,27.834,57.32,28.157,57.296z"/>
</svg>
