<?xml version="1.0" encoding="utf-8"?>
<!-- Generator: Adobe Illustrator 16.0.0, SVG Export Plug-In . SVG Version: 6.00 Build 0)  -->
<!DOCTYPE svg PUBLIC "-//W3C//DTD SVG 1.1//EN" "http://www.w3.org/Graphics/SVG/1.1/DTD/svg11.dtd">
<svg version="1.1" id="Layer_1" xmlns="http://www.w3.org/2000/svg" xmlns:xlink="http://www.w3.org/1999/xlink" x="0px" y="0px"
	 width="100px" height="100px" viewBox="0 0 100 100" enable-background="new 0 0 100 100" xml:space="preserve">
<path fill="#3A677F" d="M81.887,52.548c-0.132-1.178,0.078-2.493-0.396-2.651c-0.335-0.112-0.94,0.053-1.222,0.544
	c-0.332,0.583-0.862,2.172-1.055,3.091c-0.158,0.772-0.566,2.186-0.808,2.978c-0.242,0.799-0.968,1.43-1.44,1.939
	c-0.468,0.509-0.96,0.932-1.79,1.553c-0.829,0.622-1.512,0.836-1.512,2.382c0,1.265,1.026,1.909,1.546,2.529
	c0.52,0.621,0.796,0.89,0.588,1.821c-0.208,0.933-0.726,3.109-0.828,4.146c-0.104,1.035-0.521,3.211-1.142,3.211
	s-0.828-2.069-1.037-3.832c-0.207-1.762,0.207-3.108-0.207-5.388c-0.415-2.279-1.033-3.73-1.76-5.389
	c-0.728-1.657-2.487-2.899-3.317-4.973c-0.826-2.07-1.447-1.863-1.966-3.833c-0.519-1.966-0.519-5.801,0.103-7.562
	c0.621-1.763,2.899-6.32,3.211-8.185c0.312-1.864,0.621-6.009,0-7.77c-0.621-1.76-1.449-2.071-2.381-3.107
	c-0.932-1.037-1.865-2.901-1.762-4.041c0.104-1.139,1.037-2.382,1.762-4.35c0.375-1.022,0.635-2.404,0.656-3.744
	c0.083-0.039,0.209-0.051,0.297-0.02c0.148,0.055,0.12,0.217,0.293,0.183c0.125-0.026,0.197-0.367,0.301-0.448
	c0.102-0.079,0.472,0.275,0.607,0.48c0.133,0.204,0.035,0.519-0.007,0.958c-0.04,0.442-0.052,1.091-0.396,1.927
	c-0.349,0.84-0.281,1.318-0.776,1.688c-0.288,0.219-0.718,0.523-0.556,0.726c0.158,0.204,0.424,0.061,0.726-0.121
	c0.364-0.219,0.64-0.814,0.694-0.479c0.062,0.336-0.123,1.247-0.865,1.756c-0.739,0.509-0.428,0.58-0.236,0.965
	c0.189,0.384,0.372,0.407,0.708,0.399c0.337-0.007,0.376,0.563,0.634,1.543c0.252,0.979,0.573,1.387,0.66,1.774
	c0.088,0.386,0.301,0.692,0.52,1.128c0.218,0.437,0.299,0.668,0.396,0.483c0.1-0.182-0.166-0.539-0.301-0.822
	c-0.137-0.281-0.229-0.979-0.161-1.292c0.069-0.312,0.45,0.43,0.542,0.947c0.089,0.518,0.107,1.346,0.287,1.316
	c0.184-0.03,0.15-0.288,0.139-0.678c-0.006-0.389,0.053-1.246,0.213-1.094c0.156,0.153,0.141,1.552,0.238,1.344
	c0.098-0.21,0.066-0.442,0.111-0.729c0.048-0.286,0.732,0.321,1.072,0.366c0.336,0.044,0.752-0.018,0.385-0.113
	c-0.365-0.096-0.528-0.43-1.137-0.856c-0.601-0.428-0.459-0.949-0.738-1.903c-0.28-0.953-0.145-1.657-0.027-2.411
	c0.113-0.755,0.553-2.035,0.766-2.793c0.217-0.757-0.111-2.642-0.363-3.416c-0.248-0.773-1.067-1.506-1.518-1.885
	c-0.451-0.379-1.384-0.358-1.537-0.354c-0.156,0.003-0.267-0.254-0.5-0.25c-0.231,0.006-0.279,0.241-0.279,0.241
	s-0.129-0.069-0.303-0.268c-0.105-0.601-0.279-1.151-0.543-1.599c-1.037-1.761-2.781-3.121-4.412-3.408
	c-2.152-0.378-3.256-0.218-4.81,0.3C55.7,6.025,54.25,7.477,53.525,8.615c-0.727,1.14-0.998,3.083-0.774,4.311
	c0.211,1.163,0.774,1.595,0.462,2.424c-0.311,0.828-0.934,1.864-0.518,2.175s1.244-0.207,1.451,0.621
	c0.045,0.18,0.058,0.471,0.182,0.642c0.123,0.17,0.363,0.222,0.428,0.369c0.086,0.195-0.095,0.367-0.079,0.559
	c0.017,0.176,0.235,0.373,0.255,0.588c0.062,0.751,0.354,1.677,1.184,1.677c0.83,0,2.277-0.622,2.486,0
	c0.207,0.622,0.83,1.554,0,2.9c-0.828,1.347-2.381,3.42-3.625,4.56s-3.315,3.624-4.248,5.077c-0.935,1.451-1.657,2.796-1.554,4.041
	c0.104,1.243,0.308,4.249,0.412,5.387c0.105,1.139,0.622,3.729,0.105,4.247c-0.518,0.52-2.278,1.867-3.212,2.384
	c-0.933,0.516-1.761,1.555-2.798,1.139c-1.036-0.415-2.277-0.62-2.899-0.62c-0.622,0-0.725-0.104-1.864,0.312
	c-0.568,0.206-1.762,1.657-2.177,1.762c0,0-0.828,0.517-1.346,1.347c-0.518,0.828-0.311,0.93-1.14,1.035
	c-0.829,0.104-3.11,0.623-4.247,1.143c-0.855,0.389-1.876,0.58-2.746,1.346c-0.291,0.257-0.57,0.545-0.776,0.984
	c-0.204,0.432-0.156,1.256-0.208,2.123c-0.06,0.961-0.315,1.686-0.414,2.279c-0.208,1.244-0.933,4.766-1.14,5.18
	c-0.208,0.416,0,1.246,1.348,1.658c0,0,1.865,0.414,1.865,1.036s0.31,2.692,0.621,4.146c0.312,1.449,0.93,4.556,1.035,5.904
	c0.105,1.349,0.209,4.453,0.105,5.389c-0.105,0.932-0.415,2.277-1.14,2.589c-0.726,0.312-2.176,0.932-3.213,1.347
	c-1.036,0.415-2.176,1.037-3.211,1.4c-1.037,0.361-2.747,1.398-3.161,1.398s-1.088,0.361-0.829,1.034
	c0.26,0.675,2.021,0.468,2.901,0.468c0.881,0,3.109-0.777,4.352-0.934c1.242-0.156,3.419-0.413,4.404-0.413
	c0.983,0,2.486,0.002,3.418,0.052c0.932,0.051,2.433,0.104,2.692-0.931c0.26-1.037-0.26-2.592-0.466-3.628
	c-0.208-1.036-0.725-3.729-0.725-4.766c0-1.035-0.208-4.301-0.103-5.854c0.103-1.556,0.621-3.987,0.932-5.386
	c0.311-1.4,0.412-4.766,0.362-5.231c-0.051-0.467-0.312-1.918,0.207-1.918s1.969,0.157,3.109,0.104l2.073,0.154
	c0,0,4.868,0.725,7.251,0.828c2.383,0.104,7.872-0.518,8.702,0.207c0.828,0.725,3.419,4.764,4.041,6.008
	c0.621,1.243,2.278,4.455,2.486,5.699c0.292,1.752,1.181,4.006,1.783,5.283c0.828,1.762,2.152,4.455,3.084,6.009
	c0.934,1.556,1.709,2.817,3.004,3.316c1.262,0.485,4.486,0.489,5.595-0.828c1.039-1.24,1.675-3.252,1.782-4.16
	c0.188-1.556,0.81-5.476,0.705-8.896c-0.104-3.418,0.311-9.842,0.518-11.912c0.207-2.073,0.828-5.389,1.036-6.322
	c0.207-0.932,0.444-4.423,0.519-5.904C81.873,54.243,81.957,53.188,81.887,52.548z M50.283,55.768c-1.055,0-4.2,0.131-4.2,0.131
	s1.357-1.295,2.088-1.379c0.734-0.082,1.825-0.405,1.825-0.405S51.34,55.768,50.283,55.768z"/>
</svg>
