<?xml version="1.0" encoding="utf-8"?>
<!-- Generator: Adobe Illustrator 16.0.0, SVG Export Plug-In . SVG Version: 6.00 Build 0)  -->
<!DOCTYPE svg PUBLIC "-//W3C//DTD SVG 1.1//EN" "http://www.w3.org/Graphics/SVG/1.1/DTD/svg11.dtd">
<svg version="1.1" id="Layer_1" xmlns="http://www.w3.org/2000/svg" xmlns:xlink="http://www.w3.org/1999/xlink" x="0px" y="0px"
	 width="512px" height="512px" viewBox="0 0 512 512" enable-background="new 0 0 512 512" xml:space="preserve">
<path id="youtube-5-icon" fill="#3A677F" d="M256,50C142.229,50,50,142.229,50,256c0,113.771,92.229,206,206,206
	c113.77,0,206-92.229,206-206C462,142.229,369.77,50,256,50z M256,422c-91.744,0-166-74.244-166-166c0-91.743,74.244-166,166-166
	c91.738,0,166,74.244,166,166C422,347.739,347.755,422,256,422z M189.453,141.687h13.245l9.068,34.031l8.426-34.031h13.361
	l-15.304,50.607v34.532h-13.152v-34.532L189.453,141.687z M232.958,211.162c0,11.068,5.784,16.83,17.109,16.83
	c9.391,0,16.787-6.28,16.787-16.83v-30.786c0-9.83-7.32-16.873-16.787-16.873c-10.284,0-17.109,6.796-17.109,16.873V211.162
	L232.958,211.162z M244.975,181.413c0-3.438,1.583-5.989,4.863-5.989c3.581,0,5.113,2.475,5.113,5.989v29.214
	c0,3.419-1.743,5.946-4.884,5.946c-3.226,0-5.093-2.638-5.093-5.946L244.975,181.413L244.975,181.413z M298.42,164.021v47.672
	c-1.422,1.782-4.588,4.703-6.865,4.703c-2.498,0-3.109-1.705-3.109-4.231V164.02h-11.678v52.495c0,6.204,1.896,11.218,8.156,11.218
	c3.533,0,8.438-1.838,13.496-7.84v6.933h11.677v-62.805H298.42z M281.244,292.77c0.793,1.047,1.188,2.578,1.188,4.597v30.885
	c0,1.905-0.32,3.278-0.963,4.121c-1.226,1.604-3.88,1.532-5.689,0.616c-0.851-0.43-1.728-1.131-2.633-2.104v-37.274
	c0.756-0.82,1.52-1.43,2.293-1.822C277.387,290.803,279.898,290.994,281.244,292.77z M318.68,291.414
	c-4.121,0-4.968,2.9-4.968,7.011v6.056h9.825v-6.056C323.537,294.383,322.68,291.414,318.68,291.414z M352.596,335.538
	c0,14.788-11.987,26.774-26.774,26.774H188.18c-14.787,0-26.774-11.986-26.774-26.774v-67.642c0-14.79,11.987-26.776,26.774-26.776
	h137.64c14.787,0,26.774,11.987,26.774,26.776L352.596,335.538L352.596,335.538z M206.521,272.953h12.957v-11.77h-38.437v11.77
	h12.955v69.314h12.524L206.521,272.953L206.521,272.953z M251.068,282.455h-11.121v45.402c-1.356,1.697-4.37,4.479-6.538,4.479
	c-2.379,0-2.962-1.623-2.962-4.029v-45.852h-11.122v49.994c0,12.137,8.229,12.21,14.225,8.775c2.217-1.271,4.348-3.125,6.397-5.561
	v6.604h11.121V282.455L251.068,282.455z M293.878,296.693c0-8.113-2.696-14.994-10.842-14.994c-3.974,0-7.379,2.531-9.89,5.589
	v-26.104h-11.229v81.086h11.229v-4.599c3.101,3.866,6.492,5.354,10.563,5.354c7.397,0,10.167-5.75,10.167-13.148L293.878,296.693
	L293.878,296.693z M334.982,298.535c0-10.811-5.155-17.592-15.824-17.592c-10.032,0-16.893,7.207-16.893,17.592v26.848
	c0,10.77,5.432,18.506,16.05,18.506c11.72,0,16.667-6.979,16.667-18.506v-4.492h-11.445v4.157c0,5.208-0.274,8.367-4.969,8.367
	c-4.478,0-4.856-3.881-4.856-8.367v-11.282h21.271L334.982,298.535L334.982,298.535z"/>
</svg>
